<?xml version="1.0" encoding="iso-8859-1"?>
<!-- Generator: Adobe Illustrator 19.0.0, SVG Export Plug-In . SVG Version: 6.00 Build 0)  -->
<svg version="1.1" id="Capa_1" xmlns="http://www.w3.org/2000/svg" xmlns:xlink="http://www.w3.org/1999/xlink" x="0px" y="0px"
	 viewBox="0 0 512 512" style="enable-background:new 0 0 512 512;" xml:space="preserve">
<path style="fill:#5C4346;" d="M291.953,416.986L291.953,416.986c-4.262,0-8.331-3.135-9.115-7.143l-58.007-306.409
	c-5.051-25.82,0.084-38.901,11.963-38.901l0,0c11.878,0,24.203,13.081,27.234,38.901l34.804,306.409
	C299.303,413.85,296.216,416.986,291.953,416.986z"/>
<path style="fill:#735458;" d="M307.388,416.986L307.388,416.986c-4.262,0-8.085-3.135-8.556-7.143l-34.804-306.409
	c-3.031-25.82,3.902-38.901,15.78-38.901l0,0c11.878,0,22.406,13.081,23.416,38.901l11.601,306.409
	C314.982,413.85,311.65,416.986,307.388,416.986z"/>
<path style="fill:#5C4346;" d="M322.822,416.986L322.822,416.986c-4.262,0-7.84-3.135-7.997-7.143l-11.601-306.409
	c-1.01-25.82,7.72-38.901,19.598-38.901l0,0c11.878,0,20.608,13.081,19.598,38.901l-11.601,306.409
	C330.662,413.85,327.084,416.986,322.822,416.986z"/>
<path style="fill:#735458;" d="M338.257,416.986L338.257,416.986c-4.262,0-7.595-3.135-7.438-7.143l11.601-306.409
	c1.01-25.82,11.538-38.901,23.416-38.901l0,0c11.878,0,18.811,13.081,15.78,38.901l-34.804,306.409
	C346.342,413.85,342.519,416.986,338.257,416.986z"/>
<path style="fill:#5C4346;" d="M353.691,416.986L353.691,416.986c-4.262,0-7.349-3.135-6.879-7.143l34.804-306.409
	c3.031-25.82,15.356-38.901,27.234-38.901l0,0c11.878,0,17.014,13.081,11.962,38.901l-58.007,306.409
	C362.022,413.85,357.953,416.986,353.691,416.986z"/>
<path style="fill:#FF803C;" d="M511.941,63.615L447.843,444c-0.381,2.243-2.503,3.746-4.739,3.376l-29.731-4.971l-53.59-8.953
	c-2.246-0.37-3.76-2.49-3.379-4.734l64.109-380.396c0.371-2.233,2.493-3.746,4.739-3.365l52.323,8.748l30.988,5.177
	C510.808,59.252,512.323,61.372,511.941,63.615z"/>
<path style="fill:#F76328;" d="M511.941,63.615L447.843,444c-0.381,2.243-2.503,3.746-4.739,3.376l-29.731-4.971
	c1.762-0.216,3.255-1.544,3.564-3.375l64.098-380.396c0.381-2.233-1.133-4.353-3.379-4.734l-0.082-0.196l30.988,5.177
	C510.808,59.252,512.323,61.372,511.941,63.615z"/>
<g>
	<circle style="fill:#FFDEA9;" cx="426.01" cy="310.37" r="14.998"/>
	<circle style="fill:#FFDEA9;" cx="437.31" cy="246.16" r="14.998"/>
	<path style="fill:#FFDEA9;" d="M451.282,167.685c8.405,1.387,14.021,8.903,12.543,16.789s-9.49,13.155-17.895,11.768
		c-8.405-1.386-14.021-8.903-12.543-16.789S442.877,166.299,451.282,167.685z"/>
</g>
<path style="fill:#F76328;" d="M159.293,455.753l-60.729,11.718c-15.617,3.014-30.728-7.169-33.76-22.749L0.534,114.439
	c-3.035-15.597,7.183-30.693,22.817-33.71l60.687-11.71L159.293,455.753z"/>
<polygon style="fill:#FFDEA9;" points="101.088,156.638 12.087,173.812 6.208,143.598 95.208,126.425 "/>
<polygon style="fill:#595959;" points="106.967,186.852 17.967,204.026 12.087,173.812 101.088,156.638 "/>
<polygon style="fill:#FFDEA9;" points="112.846,217.065 23.846,234.239 17.967,204.026 106.967,186.852 "/>
<polygon style="fill:#595959;" points="118.726,247.279 29.725,264.453 23.846,234.239 112.846,217.065 "/>
<polygon style="fill:#FFDEA9;" points="124.605,277.493 35.605,294.666 29.725,264.453 118.726,247.279 "/>
<polygon style="fill:#595959;" points="130.484,307.706 41.484,324.88 35.605,294.666 124.605,277.493 "/>
<polygon style="fill:#FFDEA9;" points="136.364,337.92 47.363,355.094 41.484,324.88 130.484,307.706 "/>
<polygon style="fill:#595959;" points="142.243,368.134 53.243,385.307 47.363,355.094 136.364,337.92 "/>
<polygon style="fill:#FFDEA9;" points="148.123,398.347 59.122,415.521 53.243,385.307 142.243,368.134 "/>
<path style="fill:#FF803C;" d="M288.551,430.811l-129.258,24.942L84.037,69.019l129.264-24.943c2.231-0.431,4.39,1.024,4.823,3.25
	l73.687,378.67C292.244,428.224,290.785,430.38,288.551,430.811z"/>
<path style="fill:#F76328;" d="M291.811,425.996l-73.687-378.67c-0.433-2.226-2.592-3.68-4.823-3.25l-26.267,5.068l75.202,386.745
	l26.314-5.078C290.785,430.38,292.244,428.224,291.811,425.996z"/>
<polygon style="fill:#FFDEA9;" points="120.28,93.47 192.893,79.458 256.354,405.579 183.74,419.591 "/>
<path style="fill:#FFCE55;" d="M193.209,282.204c-3.518,0-6.657-2.487-7.354-6.069l-9.799-50.356
	c-0.791-4.066,1.864-8.003,5.93-8.794c4.069-0.791,8.004,1.864,8.795,5.929l9.799,50.356c0.791,4.066-1.864,8.003-5.93,8.794
	C194.166,282.159,193.683,282.204,193.209,282.204z"/>
<g>
</g>
<g>
</g>
<g>
</g>
<g>
</g>
<g>
</g>
<g>
</g>
<g>
</g>
<g>
</g>
<g>
</g>
<g>
</g>
<g>
</g>
<g>
</g>
<g>
</g>
<g>
</g>
<g>
</g>
</svg>
