<?xml version="1.0" encoding="iso-8859-1"?>
<!-- Generator: Adobe Illustrator 19.0.0, SVG Export Plug-In . SVG Version: 6.00 Build 0)  -->
<svg version="1.1" id="Capa_1" xmlns="http://www.w3.org/2000/svg" xmlns:xlink="http://www.w3.org/1999/xlink" x="0px" y="0px"
	 viewBox="0 0 511.998 511.998" style="enable-background:new 0 0 511.998 511.998;" xml:space="preserve">
<path style="fill:#FFDEA9;" d="M253.884,252.244c-43.948-43.663,11.544-134.278-18.939-128.247
	c-58.908,11.654-77.099,89.868-95.979,108.626c-40.546,40.284-71.519,18.023-110.011,56.266
	C-15.93,333.484-6.747,411.368,43.488,461.278c51.931,51.595,129.598,58.07,173.487,14.465
	c38.377-38.129,16.093-68.556,56.822-109.102c31.694-31.553,72.859-42.535,78.991-62.913
	C364.634,264.367,300.872,298.928,253.884,252.244z"/>
<g>
	<path style="fill:#FFBF7B;" d="M330.623,281.324c-0.027,0.091-0.047,0.177-0.075,0.269c-6.133,20.407-47.297,31.405-78.991,63.003
		c-40.729,40.605-18.445,71.075-56.822,109.259c-40.737,40.532-110.57,37.848-161.918-4.061c3.32,4.068,6.876,8.005,10.67,11.78
		c51.931,51.669,129.597,58.154,173.487,14.486c38.377-38.184,16.093-68.654,56.822-109.259
		c31.695-31.598,72.859-42.596,78.991-63.003C358.186,285.836,347.882,283.246,330.623,281.324z"/>
	<path style="fill:#FFBF7B;" d="M231.644,230.035c4.442,4.42,9.034,8.11,13.698,11.207
		c-27.288-46.269,17.712-123.003-10.398-117.434c-5.129,1.016-9.942,2.548-14.481,4.491
		C215.489,157.265,204.252,202.781,231.644,230.035z"/>
</g>
<path style="fill:#FF803C;" d="M234.737,336.569l-66.435-66.006c-1.57-1.56-1.57-4.097,0-5.657l21.37-21.232
	c1.561-1.551,4.084-1.551,5.645,0l66.435,66.006c1.57,1.56,1.57,4.097,0,5.657l-21.37,21.232
	C238.82,338.12,236.297,338.12,234.737,336.569z"/>
<path style="fill:#F76328;" d="M234.766,336.62l-19.392-19.116l27.007-26.897l19.352,19.077c1.579,1.557,1.586,4.1,0.015,5.665
	l-21.344,21.257C238.847,338.155,236.33,338.161,234.766,336.62z"/>
<path style="fill:#FF803C;" d="M171.47,399.427l-66.435-66.005c-1.57-1.56-1.57-4.097,0-5.657l21.37-21.232
	c1.561-1.551,4.084-1.551,5.645,0l66.435,66.005c1.57,1.56,1.57,4.097,0,5.657l-21.37,21.232
	C175.554,400.977,173.03,400.977,171.47,399.427z"/>
<path style="fill:#F76328;" d="M171.499,399.479l-18.969-18.695l27.006-26.897l18.928,18.655c1.58,1.557,1.586,4.1,0.015,5.665
	l-21.344,21.257C175.58,401.013,173.063,401.02,171.499,399.479z"/>
<g>
	<circle style="fill:#FF803C;" cx="128.909" cy="454.78" r="19.999"/>
	<circle style="fill:#FF803C;" cx="191.279" cy="447.82" r="12.999"/>
</g>
<g>
	<path style="fill:#735458;" d="M428.828,88.887c-1.914,0-3.828-0.726-5.292-2.181l-36.053-35.819
		c-2.936-2.916-2.945-7.654-0.022-10.584c2.921-2.929,7.67-2.941,10.606-0.022L434.12,76.1c2.936,2.916,2.945,7.654,0.022,10.584
		C432.678,88.153,430.753,88.887,428.828,88.887z"/>
	<path style="fill:#735458;" d="M453.384,73.314c-1.914,0-3.828-0.726-5.292-2.181l-36.053-35.82
		c-2.936-2.916-2.945-7.654-0.022-10.584c2.921-2.929,7.67-2.941,10.606-0.022l36.053,35.819c2.936,2.916,2.945,7.654,0.022,10.584
		C457.234,72.579,455.309,73.314,453.384,73.314z"/>
	<path style="fill:#735458;" d="M477.987,57.786c-1.914,0-3.828-0.726-5.292-2.181l-36.053-35.818
		c-2.935-2.916-2.945-7.654-0.022-10.584c2.921-2.929,7.67-2.94,10.606-0.022L483.279,45c2.935,2.916,2.945,7.654,0.022,10.584
		C481.837,57.052,479.912,57.786,477.987,57.786z"/>
	<polygon style="fill:#735458;" points="243.868,291.913 213.224,261.467 410.964,65.006 441.609,95.452 	"/>
</g>
<path style="fill:#A66856;" d="M506.261,58.296c-0.299,0.329-0.587,0.627-0.845,0.883c-4.924,4.899-11.692,7.015-18.564,6.45
	l-48.8,49.885c-6.665,7.138-18.708,6.625-26.537-1.16l-21.418-21.271l-9.333-9.264c-2.493-2.475-2.349-6.316,0.289-7.991
	l85.165-55.585c6.099-6.06,15.03-7.868,23.499-5.598c4.842,1.284,9.529,3.903,13.464,7.816
	C513.668,32.886,514.935,48.672,506.261,58.296z"/>
<path style="fill:#8F5040;" d="M506.261,58.296c-0.299,0.329-0.587,0.627-0.845,0.883c-4.924,4.899-11.692,7.015-18.564,6.45
	l-48.8,49.885c-6.665,7.138-18.708,6.625-26.537-1.16l-21.418-21.271l0.052-0.031c7.829,7.785,19.872,8.309,26.548,1.161
	l43.695-44.667c2.825-2.888,6.523-4.807,10.536-5.331c4.912-0.641,9.513-2.741,13.133-6.327c6.068-6.039,7.891-14.852,5.656-23.243
	c4.842,1.284,9.529,3.903,13.464,7.816C513.668,32.886,514.935,48.672,506.261,58.296z"/>
<g>
	<polygon style="fill:#FFBF7B;" points="379.347,157.334 348.758,126.838 359.36,116.249 389.948,146.746 	"/>
	<polygon style="fill:#FFBF7B;" points="348.758,187.831 318.169,157.334 328.771,146.746 359.36,177.243 	"/>
	<polygon style="fill:#FFBF7B;" points="318.169,218.327 287.58,187.831 298.182,177.243 328.771,207.738 	"/>
	<polygon style="fill:#FFBF7B;" points="287.58,248.824 256.991,218.327 267.593,207.738 298.182,238.235 	"/>
</g>
<g>
</g>
<g>
</g>
<g>
</g>
<g>
</g>
<g>
</g>
<g>
</g>
<g>
</g>
<g>
</g>
<g>
</g>
<g>
</g>
<g>
</g>
<g>
</g>
<g>
</g>
<g>
</g>
<g>
</g>
</svg>
