<?xml version="1.0" encoding="iso-8859-1"?>
<!-- Generator: Adobe Illustrator 19.0.0, SVG Export Plug-In . SVG Version: 6.00 Build 0)  -->
<svg version="1.1" id="Capa_1" xmlns="http://www.w3.org/2000/svg" xmlns:xlink="http://www.w3.org/1999/xlink" x="0px" y="0px"
	 viewBox="0 0 512 512" style="enable-background:new 0 0 512 512;" xml:space="preserve">
<g>
	<path style="fill:#B8B6B1;" d="M194.15,389.395c-3.495-2.226-8.13-1.196-10.355,2.297l-27.868,43.757
		c-2.225,3.494-1.196,8.13,2.297,10.355c1.249,0.795,2.643,1.175,4.021,1.175c2.478,0,4.904-1.228,6.333-3.472l27.868-43.757
		C198.672,396.256,197.644,391.62,194.15,389.395z"/>
	<path style="fill:#B8B6B1;" d="M328.205,391.692c-2.226-3.494-6.86-4.522-10.355-2.297c-3.494,2.225-4.522,6.861-2.297,10.355
		l27.868,43.757c1.43,2.245,3.855,3.472,6.333,3.472c1.378,0,2.773-0.38,4.021-1.175c3.494-2.225,4.522-6.861,2.297-10.355
		L328.205,391.692z"/>
	<path style="fill:#B8B6B1;" d="M92.49,394.294V53.5c0-4.142-3.358-7.5-7.5-7.5s-7.5,3.358-7.5,7.5v340.794l-32.208,39.978
		c-2.599,3.226-2.09,7.947,1.135,10.545c3.224,2.599,7.947,2.091,10.545-1.135l20.527-25.479v20.774c0,4.142,3.358,7.5,7.5,7.5
		s7.5-3.358,7.5-7.5v-20.774l20.527,25.479c1.482,1.839,3.653,2.795,5.845,2.795c1.652,0,3.314-0.543,4.701-1.66
		c3.226-2.599,3.734-7.32,1.135-10.545L92.49,394.294z"/>
	<path style="fill:#B8B6B1;" d="M466.718,434.272l-32.208-39.978V53.5c0-4.142-3.358-7.5-7.5-7.5s-7.5,3.358-7.5,7.5v340.794
		l-32.208,39.978c-2.599,3.226-2.09,7.947,1.135,10.545c3.224,2.599,7.947,2.091,10.545-1.135l20.527-25.479v20.774
		c0,4.142,3.358,7.5,7.5,7.5s7.5-3.358,7.5-7.5v-20.774l20.527,25.479c1.482,1.839,3.653,2.795,5.845,2.795
		c1.652,0,3.314-0.543,4.701-1.66C468.808,442.219,469.316,437.498,466.718,434.272z"/>
</g>
<path style="fill:#595959;" d="M508,466H4c-2.209,0-4-1.791-4-4v-22.9c0-2.209,1.791-4,4-4h504c2.209,0,4,1.791,4,4V462
	C512,464.209,510.209,466,508,466z"/>
<path style="fill:#464646;" d="M508,466h-26.905v-30.9H508c2.209,0,4,1.791,4,4V462C512,464.209,510.209,466,508,466z"/>
<path style="fill:#A66856;" d="M199.461,247.64H75.598c-2.209,0-4-1.791-4-4V146.7h131.863v96.94
	C203.461,245.849,201.67,247.64,199.461,247.64z"/>
<path style="fill:#8F5040;" d="M199.461,247.64h-26.905V146.7h30.905v96.94C203.461,245.849,201.67,247.64,199.461,247.64z"/>
<path style="fill:#FFDEA9;" d="M205.642,159.06H69.416c-2.209,0-4-1.791-4-4v-16.72c0-2.209,1.791-4,4-4h136.225
	c2.209,0,4,1.791,4,4v16.72C209.642,157.269,207.851,159.06,205.642,159.06z"/>
<path style="fill:#A66856;" d="M436.402,247.64H312.539c-2.209,0-4-1.791-4-4V146.7h131.863v96.94
	C440.402,245.849,438.612,247.64,436.402,247.64z"/>
<path style="fill:#8F5040;" d="M436.402,247.64h-26.905V146.7h30.905v96.94C440.402,245.849,438.612,247.64,436.402,247.64z"/>
<path style="fill:#FFDEA9;" d="M442.583,159.06H306.358c-2.209,0-4-1.791-4-4v-16.72c0-2.209,1.791-4,4-4h136.225
	c2.209,0,4,1.791,4,4v16.72C446.583,157.269,444.793,159.06,442.583,159.06z"/>
<g>
	<path style="fill:#FFBF7B;" d="M205.642,159.06h-26.905v-24.72h26.905c2.209,0,4,1.791,4,4v16.72
		C209.642,157.269,207.851,159.06,205.642,159.06z"/>
	<path style="fill:#FFBF7B;" d="M442.583,159.06h-26.905v-24.72h26.905c2.209,0,4,1.791,4,4v16.72
		C446.583,157.269,444.793,159.06,442.583,159.06z"/>
</g>
<g>
	<path style="fill:#FFCE55;" d="M132.868,92.11H35.439c-2.428,0-3.851-2.727-2.462-4.718C37.98,80.218,51.595,67.39,84.99,67.39
		c33.62,0,46.109,13.002,50.434,20.147C136.64,89.546,135.217,92.11,132.868,92.11z"/>
	<path style="fill:#FFCE55;" d="M475.918,92.11H378.49c-2.428,0-3.851-2.727-2.462-4.718c5.003-7.174,18.618-20.002,52.013-20.002
		c33.62,0,46.109,13.002,50.434,20.147C479.69,89.546,478.267,92.11,475.918,92.11z"/>
</g>
<g>
	<path style="fill:#FFBC38;" d="M428.04,67.39c-5.728,0-10.87,0.38-15.49,1.041c32.375,4.695,37.124,23.679,37.124,23.679h26.244
		c2.349,0,3.772-2.564,2.556-4.573C474.149,80.392,461.66,67.39,428.04,67.39z"/>
	<path style="fill:#FFBC38;" d="M84.99,67.39c-5.728,0-10.87,0.38-15.49,1.041c32.375,4.695,37.124,23.679,37.124,23.679h26.244
		c2.349,0,3.772-2.564,2.556-4.573C131.099,80.392,118.61,67.39,84.99,67.39z"/>
</g>
<ellipse style="fill:#FFDEA9;" cx="256" cy="293.99" rx="124.65" ry="124.63"/>
<path style="fill:#595959;" d="M256,391.84c-53.964,0-97.867-43.895-97.867-97.85s43.903-97.85,97.867-97.85
	s97.867,43.895,97.867,97.85S309.964,391.84,256,391.84z"/>
<g>
</g>
<g>
</g>
<g>
</g>
<g>
</g>
<g>
</g>
<g>
</g>
<g>
</g>
<g>
</g>
<g>
</g>
<g>
</g>
<g>
</g>
<g>
</g>
<g>
</g>
<g>
</g>
<g>
</g>
</svg>
