<?xml version="1.0" encoding="iso-8859-1"?>
<!-- Generator: Adobe Illustrator 19.0.0, SVG Export Plug-In . SVG Version: 6.00 Build 0)  -->
<svg version="1.1" id="Capa_1" xmlns="http://www.w3.org/2000/svg" xmlns:xlink="http://www.w3.org/1999/xlink" x="0px" y="0px"
	 viewBox="0 0 512 512" style="enable-background:new 0 0 512 512;" xml:space="preserve">
<g>
	<path style="fill:#FFCE55;" d="M168.585,480.255c-4.143,0-7.5-3.358-7.5-7.5V82.93c0-4.142,3.357-7.5,7.5-7.5s7.5,3.358,7.5,7.5
		v389.825C176.085,476.897,172.728,480.255,168.585,480.255z"/>
	<path style="fill:#FFCE55;" d="M217.282,423.555c-4.143,0-7.5-3.358-7.5-7.5V100.157c0-4.142,3.357-7.5,7.5-7.5s7.5,3.358,7.5,7.5
		v315.898C224.782,420.197,221.425,423.555,217.282,423.555z"/>
	<path style="fill:#FFCE55;" d="M264.279,363.501c-4.143,0-7.5-3.358-7.5-7.5V123.049c0-4.142,3.357-7.5,7.5-7.5s7.5,3.358,7.5,7.5
		v232.952C271.779,360.143,268.422,363.501,264.279,363.501z"/>
	<path style="fill:#FFCE55;" d="M312.809,320.996c-4.143,0-7.5-3.358-7.5-7.5V151.905c0-4.142,3.357-7.5,7.5-7.5s7.5,3.358,7.5,7.5
		v161.591C320.309,317.638,316.951,320.996,312.809,320.996z"/>
</g>
<path style="fill:#A66856;" d="M406.445,196.452c-0.348,0-0.697-0.012-1.049-0.036c-83.226-5.723-106.437-23.508-135.823-46.023
	c-11.419-8.749-23.226-17.797-40.536-27.406c-55.443-30.78-109.473-21.119-110.012-21.018c-8.288,1.554-16.253-3.992-17.787-12.39
	c-1.536-8.399,12.771-88.009,21.06-89.564c2.638-0.494,33.056,11.185,97.928,47.198c19.271,10.698,57.861,55.661,69.584,64.643
	c26.319,20.166,45.334,34.736,119.477,39.835c8.41,0.579,12.941,21.823,12.37,30.344
	C421.111,190.199,414.403,196.451,406.445,196.452z"/>
<path style="fill:#8F5040;" d="M210.724,487.649c-0.662,0-1.332-0.044-2.006-0.132c-8.41-1.102-14.336-8.889-13.241-17.358
	c0.46-3.557,12.306-88.044,103.074-168.267c95.52-84.423,98.763-125.195,101.951-150.874c1.052-8.474,36.527-21.237,35.475-12.762
	c-3.527,28.414-13.514,95.268-117.17,186.882c-42.609,37.658-65.582,76.146-77.352,101.801
	c-12.779,27.858-15.507,47.076-15.533,47.267C224.915,481.996,218.319,487.65,210.724,487.649z"/>
<path style="fill:#FFCE55;" d="M122.298,474.312H91.433V4.015c0-2.209,1.791-4,4-4h26.865V474.312z"/>
<path style="fill:#A66856;" d="M246.904,512H80c-2.209,0-4-1.791-4-4v-37.243c0-3.413,2.767-6.179,6.179-6.179h162.546
	c3.413,0,6.179,2.767,6.179,6.179V508C250.904,510.209,249.114,512,246.904,512z"/>
<path style="fill:#8F5040;" d="M244.72,464.577h-30.847c3.41,0,6.174,2.769,6.174,6.184V512h26.857c2.209,0,4-1.791,4-4v-37.238
	C250.904,467.346,248.136,464.577,244.72,464.577z"/>
<g>
</g>
<g>
</g>
<g>
</g>
<g>
</g>
<g>
</g>
<g>
</g>
<g>
</g>
<g>
</g>
<g>
</g>
<g>
</g>
<g>
</g>
<g>
</g>
<g>
</g>
<g>
</g>
<g>
</g>
</svg>
