<?xml version="1.0" encoding="iso-8859-1"?>
<!-- Generator: Adobe Illustrator 19.0.0, SVG Export Plug-In . SVG Version: 6.00 Build 0)  -->
<svg version="1.1" id="Capa_1" xmlns="http://www.w3.org/2000/svg" xmlns:xlink="http://www.w3.org/1999/xlink" x="0px" y="0px"
	 viewBox="0 0 512 512" style="enable-background:new 0 0 512 512;" xml:space="preserve">
<g>
	<path style="fill:#5C4346;" d="M37.722,432H14.817c-2.209,0-4-1.791-4-4V126.316h30.905V428C41.722,430.209,39.931,432,37.722,432z
		"/>
	<path style="fill:#5C4346;" d="M497.183,432h-22.905c-2.209,0-4-1.791-4-4V126.316h30.905V428
		C501.183,430.209,499.392,432,497.183,432z"/>
</g>
<g>
	<rect x="101.47" y="88.23" style="fill:#75360D;" width="61.811" height="38.08"/>
	<rect x="225.09" y="88.23" style="fill:#75360D;" width="61.811" height="38.08"/>
</g>
<g>
	<rect x="39.662" y="80" style="fill:#A66856;" width="61.811" height="46.32"/>
	<rect x="163.28" y="80" style="fill:#A66856;" width="61.811" height="46.32"/>
	<rect x="286.9" y="80" style="fill:#A66856;" width="61.811" height="46.32"/>
	<rect x="410.53" y="80" style="fill:#A66856;" width="61.811" height="46.32"/>
</g>
<g>
	<rect x="441.43" y="80" style="fill:#8F5040;" width="30.905" height="46.32"/>
	<rect x="317.81" y="80" style="fill:#8F5040;" width="30.905" height="46.32"/>
	<rect x="194.19" y="80" style="fill:#8F5040;" width="30.905" height="46.32"/>
	<rect x="70.57" y="80" style="fill:#8F5040;" width="30.905" height="46.32"/>
</g>
<rect x="348.72" y="88.23" style="fill:#75360D;" width="61.811" height="38.08"/>
<path style="fill:#F5A257;" d="M421.98,364.596h-22.905c-2.209,0-4-1.791-4-4V141.754h30.905v218.842
	C425.98,362.805,424.189,364.596,421.98,364.596z"/>
<path style="fill:#F3B573;" d="M391.074,348.289h-22.905c-2.209,0-4-1.791-4-4V141.754h30.905v202.534
	C395.074,346.498,393.284,348.289,391.074,348.289z"/>
<path style="fill:#F5A257;" d="M360.169,333.174h-22.905c-2.209,0-4-1.791-4-4v-187.42h30.905v187.42
	C364.169,331.383,362.378,333.174,360.169,333.174z"/>
<path style="fill:#F3B573;" d="M329.264,319.166h-22.905c-2.209,0-4-1.791-4-4V141.754h30.905v173.411
	C333.264,317.375,331.473,319.166,329.264,319.166z"/>
<path style="fill:#F5A257;" d="M298.358,306.183h-22.905c-2.209,0-4-1.791-4-4V141.754h30.905v160.428
	C302.358,304.392,300.567,306.183,298.358,306.183z"/>
<path style="fill:#F3B573;" d="M267.453,294.15h-22.905c-2.209,0-4-1.791-4-4V141.754h30.905V290.15
	C271.453,292.359,269.662,294.15,267.453,294.15z"/>
<path style="fill:#F5A257;" d="M236.547,282.997h-22.905c-2.209,0-4-1.791-4-4V141.754h30.905v137.243
	C240.547,281.206,238.756,282.997,236.547,282.997z"/>
<path style="fill:#F3B573;" d="M205.642,272.661h-22.905c-2.209,0-4-1.791-4-4V141.754h30.905V268.66
	C209.642,270.87,207.851,272.661,205.642,272.661z"/>
<path style="fill:#F5A257;" d="M174.736,263.081h-22.905c-2.209,0-4-1.791-4-4V141.754h30.905V259.08
	C178.736,261.29,176.946,263.081,174.736,263.081z"/>
<path style="fill:#F3B573;" d="M143.831,254.202h-22.905c-2.209,0-4-1.791-4-4V141.754h30.905v108.448
	C147.831,252.411,146.04,254.202,143.831,254.202z"/>
<path style="fill:#F5A257;" d="M112.926,245.973H90.02c-2.209,0-4-1.791-4-4V141.754h30.905v100.219
	C116.926,244.182,115.135,245.973,112.926,245.973z"/>
<path style="fill:#735458;" d="M508,141.754H4c-2.209,0-4-1.791-4-4v-22.877c0-2.209,1.791-4,4-4h504c2.209,0,4,1.791,4,4v22.877
	C512,139.964,510.209,141.754,508,141.754z"/>
<path style="fill:#5C4346;" d="M508,141.754h-26.905v-30.877H508c2.209,0,4,1.791,4,4v22.877
	C512,139.964,510.209,141.754,508,141.754z"/>
<g>
</g>
<g>
</g>
<g>
</g>
<g>
</g>
<g>
</g>
<g>
</g>
<g>
</g>
<g>
</g>
<g>
</g>
<g>
</g>
<g>
</g>
<g>
</g>
<g>
</g>
<g>
</g>
<g>
</g>
</svg>
