<?xml version="1.0" encoding="iso-8859-1"?>
<!-- Generator: Adobe Illustrator 19.0.0, SVG Export Plug-In . SVG Version: 6.00 Build 0)  -->
<svg version="1.1" id="Capa_1" xmlns="http://www.w3.org/2000/svg" xmlns:xlink="http://www.w3.org/1999/xlink" x="0px" y="0px"
	 viewBox="0 0 512.002 512.002" style="enable-background:new 0 0 512.002 512.002;" xml:space="preserve">
<polygon style="fill:#A66856;" points="89.37,106.787 116.28,79.484 87.343,50.547 60.237,77.653 "/>
<path style="fill:#735458;" d="M468.042,476.623c-0.678,0-1.367-0.093-2.051-0.287c-3.985-1.131-6.299-5.278-5.168-9.263
	l1.438-5.066c3.43-12.084-2.836-28.773-15.592-41.529L56.261,30.072c-2.929-2.929-2.929-7.678,0-10.606
	c2.929-2.929,7.678-2.929,10.606,0l390.409,390.407c16.738,16.739,24.359,38.811,19.414,56.23l-1.438,5.065
	C474.316,474.468,471.311,476.623,468.042,476.623z"/>
<path style="fill:#FFDEA9;" d="M61.638,62.721l412.945,412.944c1.562,1.562,1.562,4.095,0,5.657l-11.826,11.826
	c-1.562,1.562-4.095,1.562-5.657,0L44.155,80.204c-1.562-1.562-1.562-4.095,0-5.657l11.826-11.826
	C57.543,61.159,60.076,61.159,61.638,62.721z"/>
<g>
	<path style="fill:#5C4346;" d="M459.058,122.008l-27.163-41.631l-41.664-27.134c-6.003-5.998-6.003-15.723,0-21.721l0,0
		c6.001-5.995,15.728-5.995,21.729,0l27.282,41.512l41.545,27.253c6.003,5.998,6.003,15.723,0,21.721l0,0
		C474.786,128.004,465.059,128.004,459.058,122.008z"/>
	<path style="fill:#5C4346;" d="M423.972,157.062l-27.885-40.9l-40.942-27.864c-6.003-5.998-6.003-15.723,0-21.721l0,0
		c6.001-5.995,15.728-5.995,21.729,0l28.421,40.383l40.406,28.381c6.003,5.998,6.003,15.723,0,21.721l0,0
		C439.7,163.057,429.972,163.057,423.972,157.062z"/>
</g>
<path style="fill:#A66856;" d="M42.15,467.095C-29.318,393.977-6.358,279.13,84.276,257.261c0.772-0.186,1.585-0.133,2.331,0.14
	c7.139,2.607,46.546,15.65,67.796-5.6c11.947-11.947,15.864-29.512,12.389-47.783c-0.186-0.977-0.019-1.994,0.492-2.847
	c4.741-7.925,4.72-10.134,19.107-25.881c80.831-88.516,245.28,69.903,148.528,152.383c-16.055,13.682-15.19,11.735-23.732,17.059
	c-0.869,0.542-1.915,0.725-2.921,0.532c-18.328-3.511-35.969,0.384-47.949,12.353c-16.269,16.254-17.646,42.901-5.814,67.544
	c0.403,0.839,0.522,1.794,0.302,2.697C232.697,518.749,115.766,542.392,42.15,467.095z"/>
<path style="fill:#8F5040;" d="M304.83,169.1c36.583,38.893,51.066,96.724,4.162,136.71c-14.576,12.421-15.206,11.961-21.59,15.755
	c-2.264,1.345-4.925,1.814-7.526,1.408c-17.437-2.717-34.044,1.349-45.486,12.781c-15.771,15.757-17.548,41.28-6.864,65.276
	c1.079,2.425,1.337,5.145,0.65,7.709c-21.209,79.069-115.294,105.423-187.085,57.241c0.355,0.371,0.698,0.747,1.058,1.115
	c73.617,75.298,190.549,51.654,212.653-39.239c0.219-0.902,0.101-1.856-0.301-2.693c-11.833-24.643-10.456-51.291,5.813-67.546
	c11.981-11.97,29.625-15.865,47.955-12.352c1.002,0.192,2.044,0.01,2.91-0.53c8.548-5.328,7.679-3.378,23.737-17.063
	C391.783,279.195,358.416,204.488,304.83,169.1z"/>
<g>
	<path style="fill:#595959;" d="M94.567,502.37c-18.563-7.349-36.506-18.998-52.417-35.276
		c-57.558-58.885-53.871-144.855-2.896-187.5c0.1,0.045,0.172,0.045,0.199,0.017c0,0,33.952,12.753,36.724,55.097
		s12.457,57.208,38.145,87.537C128.224,438.656,115.355,464.441,94.567,502.37z"/>
	<path style="fill:#595959;" d="M121.414,328.07c-0.423,0-0.836-0.01-1.239-0.029c-9.283-0.433-16.481-5.7-19.241-10.41
		c-2.094-3.574-0.894-8.168,2.68-10.263c3.573-2.093,8.168-0.895,10.263,2.68c0.5,0.725,3.352,2.975,7.396,3.021
		c5.454,0.037,11.176-3.84,16.525-11.283c18.524-25.771,34.547-16.099,35.22-15.675c3.504,2.209,4.553,6.841,2.344,10.344
		c-2.125,3.371-6.491,4.471-9.941,2.582c-1.658-0.584-7.447,0.38-15.443,11.504C139.694,324.848,128.978,328.07,121.414,328.07z
		 M165.487,299.062L165.487,299.062L165.487,299.062z M165.034,298.81c0.001,0,0.002,0.001,0.003,0.002
		C165.036,298.811,165.035,298.811,165.034,298.81z M165.018,298.8c0.004,0.003,0.009,0.006,0.013,0.008
		C165.026,298.806,165.022,298.803,165.018,298.8z"/>
	<path style="fill:#595959;" d="M198.229,412.075c-1.293,0-2.603-0.333-3.797-1.031c-4.715-2.757-9.988-9.953-10.421-19.233
		c-0.354-7.598,2.397-18.934,17.519-29.783c12.6-9.041,11.78-14.962,11.752-15.008c-2.212-3.502-1.167-8.134,2.335-10.346
		c3.503-2.212,8.134-1.166,10.346,2.335c0.425,0.673,10.114,16.693-15.689,35.206c-7.449,5.344-11.353,11.051-11.291,16.502
		c0.046,4.035,2.295,6.88,3.066,7.406c3.576,2.091,4.757,6.671,2.666,10.247C203.322,410.751,200.809,412.075,198.229,412.075z"/>
	<path style="fill:#595959;" d="M185.781,359.656c-1.919,0-3.839-0.732-5.303-2.197l-24.9-24.9c-2.929-2.929-2.929-7.678,0-10.606
		c2.929-2.929,7.678-2.929,10.606,0l24.9,24.9c2.929,2.929,2.929,7.678,0,10.606C189.62,358.923,187.7,359.656,185.781,359.656z"/>
</g>
<path style="fill:#5C4346;" d="M61.059,450.879L61.059,450.879c-3.394-3.392-3.662-8.806-0.618-12.516l59.317-72.299
	c1.499-1.827,4.248-1.963,5.92-0.292l20.54,20.527c1.673,1.672,1.538,4.424-0.292,5.923l-72.342,59.276
	C69.87,454.54,64.455,454.273,61.059,450.879z"/>
<path style="fill:#735458;" d="M450.891,92.591l-68.09,68.03l-10.61,10.6l-19.64,19.63l-10.61,10.6l-19.64,19.62l-10.61,10.6
	l-19.64,19.63l-10.61,10.6l-44.05,44.01c-1.57,1.56-4.1,1.56-5.66,0l-25.57-25.54c-1.56-1.57-1.56-4.1,0-5.66l43.82-43.78
	l10.61-10.6l19.64-19.62l10.61-10.6l19.64-19.63l10.61-10.6l19.65-19.63l10.61-10.6l68.32-68.26c1.56-1.56,4.09-1.56,5.65,0
	l25.57,25.55C452.451,88.501,452.451,91.031,450.891,92.591z"/>
<path style="fill:#8F5040;" d="M408.711,140.843l-37.33-37.293c-1.716-1.714-1.026-5.092,1.491-7.292l71.832-62.794
	c2.21-1.932,5.053-2.258,6.56-0.752l28.063,28.035c1.5,1.499,1.184,4.324-0.731,6.53l-62.565,72.052
	C413.832,141.861,410.434,142.564,408.711,140.843z"/>
<path style="fill:#A66856;" d="M511.249,41.57l-42.042,53.507c-1.483,1.875-4.564,1.71-6.634-0.361l-21.469-21.448l-23.56-23.54
	c-2.071-2.071-2.246-5.141-0.381-6.624l53.219-42.34c1.638-1.298,4.286-0.907,6.099,0.907l12.506,12.506l21.335,21.314
	C512.135,37.305,512.536,39.932,511.249,41.57z"/>
<path style="fill:#8F5040;" d="M511.249,41.57l-42.042,53.507c-1.483,1.875-4.564,1.71-6.634-0.361l-21.469-21.448h0.021
	c2.081,2.081,5.161,2.246,6.634,0.361l42.042-53.507c1.267-1.597,0.896-4.141-0.814-5.944l21.335,21.314
	C512.135,37.305,512.536,39.932,511.249,41.57z"/>
<g>
	<polygon style="fill:#5C4346;" points="382.801,160.621 372.191,171.221 340.741,140.251 351.351,129.651 	"/>
	<polygon style="fill:#5C4346;" points="352.551,190.851 341.941,201.451 310.481,170.481 321.091,159.881 	"/>
	<polygon style="fill:#5C4346;" points="322.301,221.071 311.691,231.671 280.231,200.711 290.841,190.111 	"/>
	<polygon style="fill:#5C4346;" points="292.051,251.301 281.441,261.901 249.981,230.931 260.591,220.331 	"/>
</g>
<g>
</g>
<g>
</g>
<g>
</g>
<g>
</g>
<g>
</g>
<g>
</g>
<g>
</g>
<g>
</g>
<g>
</g>
<g>
</g>
<g>
</g>
<g>
</g>
<g>
</g>
<g>
</g>
<g>
</g>
</svg>
