<?xml version="1.0" encoding="iso-8859-1"?>
<!-- Generator: Adobe Illustrator 19.0.0, SVG Export Plug-In . SVG Version: 6.00 Build 0)  -->
<svg version="1.1" id="Layer_1" xmlns="http://www.w3.org/2000/svg" xmlns:xlink="http://www.w3.org/1999/xlink" x="0px" y="0px"
	 viewBox="0 0 470 470" style="enable-background:new 0 0 470 470;" xml:space="preserve">
<g>
	<g>
		<path d="M427.25,163.052c0-23.435-19.065-42.5-42.5-42.5c-8.915,0-17.455,2.735-24.696,7.91l-70.964,50.709
			c-1.264,0.903-2.765,1.381-4.34,1.381c-3.02,0-5.733-1.796-6.915-4.577L231.522,67.004C214.226,26.301,174.474,0,130.25,0h-80
			c-4.143,0-7.5,3.358-7.5,7.5v30c0,0.37,0.036,0.731,0.088,1.087c0.01,0.068,0.019,0.135,0.031,0.202
			c0.062,0.358,0.147,0.708,0.258,1.047c0.009,0.035,9.624,28.88,9.624,28.88V425h-2.5c-4.143,0-7.5,3.358-7.5,7.5v30
			c0,4.142,3.357,7.5,7.5,7.5h168.352c2.452,0,4.749-1.199,6.152-3.21L243.436,440h26.814c4.143,0,7.5-3.358,7.5-7.5
			c0-4.142-3.357-7.5-7.5-7.5h-16.354l165.722-237.647C424.611,180.198,427.25,171.795,427.25,163.052z M57.75,15h35v15h-35V15z
			 M65.656,60l-5-15h29.188l-5,15H65.656z M82.75,75v350h-15V75H82.75z M407.315,178.771L214.688,455H57.75v-15h145.198
			c4.143,0,7.5-3.358,7.5-7.5c0-4.142-3.357-7.5-7.5-7.5h-64.495l17.099-16.971c0.003-0.003,30-29.776,30-29.776
			c0.003-0.003,30-29.776,30-29.776c0.002-0.002,30-29.776,30-29.776c0.002-0.002,30-29.776,30-29.776
			c0.002-0.002,118.593-117.705,118.593-117.705c2.94-2.918,2.958-7.667,0.04-10.606c-2.92-2.941-7.666-2.958-10.606-0.04
			L277.75,265.612v-9.429c0-4.142-3.357-7.5-7.5-7.5s-7.5,3.358-7.5,7.5V280.5l-15,14.888v-53.466c0-4.142-3.357-7.5-7.5-7.5
			s-7.5,3.358-7.5,7.5v68.354l-15,14.888v-125.46c0-4.142-3.357-7.5-7.5-7.5s-7.5,3.358-7.5,7.5v140.347l-15,14.888V145.453
			c0-4.142-3.357-7.5-7.5-7.5s-7.5,3.358-7.5,7.5v224.374l-15,14.888V100.903c0-4.142-3.357-7.5-7.5-7.5s-7.5,3.358-7.5,7.5v298.698
			l-15,14.888V94.124c0-4.142-3.357-7.5-7.5-7.5s-7.5,3.358-7.5,7.5V425h-15V74.164l22.143-2.623
			c25.986-2.671,50.928,10.367,63.57,33.228l57.299,103.616c8.729,15.787,24.671,25.882,42.643,27.004
			c0.159,0.01,0.316,0.015,0.474,0.015c3.929,0,7.23-3.059,7.479-7.033c0.258-4.134-2.884-7.695-7.019-7.953
			c-12.829-0.801-24.213-8.013-30.449-19.292L196.59,97.51c-15.567-28.151-46.29-44.199-78.296-40.883
			c-0.036,0.004-0.072,0.008-0.108,0.012l-17.084,2.024l6.264-18.79c0.12-0.374,0.204-0.724,0.266-1.083
			c0.012-0.067,0.021-0.134,0.031-0.202c0.052-0.356,0.088-0.717,0.088-1.087V15h22.5c38.195,0,72.528,22.716,87.468,57.871
			l46.313,108.972c3.539,8.329,11.672,13.71,20.72,13.71c4.722,0,9.238-1.445,13.062-4.177l70.963-50.708
			c4.683-3.346,10.207-5.114,15.976-5.114c15.163,0,27.5,12.336,27.5,27.5C412.25,168.709,410.544,174.145,407.315,178.771z"/>
	</g>
</g>
<g>
</g>
<g>
</g>
<g>
</g>
<g>
</g>
<g>
</g>
<g>
</g>
<g>
</g>
<g>
</g>
<g>
</g>
<g>
</g>
<g>
</g>
<g>
</g>
<g>
</g>
<g>
</g>
<g>
</g>
</svg>
