<?xml version="1.0" encoding="iso-8859-1"?>
<!-- Generator: Adobe Illustrator 19.0.0, SVG Export Plug-In . SVG Version: 6.00 Build 0)  -->
<svg version="1.1" id="Layer_1" xmlns="http://www.w3.org/2000/svg" xmlns:xlink="http://www.w3.org/1999/xlink" x="0px" y="0px"
	 viewBox="0 0 470 470" style="enable-background:new 0 0 470 470;" xml:space="preserve">
<g>
	<g>
		<g>
			<path d="M462.5,12.5H7.5C3.358,12.5,0,15.857,0,20v430c0,4.143,3.358,7.5,7.5,7.5h455c4.142,0,7.5-3.357,7.5-7.5V20
				C470,15.857,466.642,12.5,462.5,12.5z M136,442.5H90v-30h7.5c4.142,0,7.5-3.357,7.5-7.5v-67.5h16V405c0,4.143,3.358,7.5,7.5,7.5
				h7.5V442.5z M75,397.5v-60h15v60H75z M197,442.5h-46v-30h7.5c4.142,0,7.5-3.357,7.5-7.5v-67.5h31V442.5z M136,397.5v-60h15v60
				H136z M258,442.5h-46v-105h31V405c0,4.143,3.358,7.5,7.5,7.5h7.5V442.5z M319,442.5h-46v-30h7.5c4.142,0,7.5-3.357,7.5-7.5v-67.5
				h16V405c0,4.143,3.358,7.5,7.5,7.5h7.5V442.5z M258,397.5v-60h15v60H258z M380,442.5h-46v-30h7.5c4.142,0,7.5-3.357,7.5-7.5
				v-67.5h16V405c0,4.143,3.358,7.5,7.5,7.5h7.5V442.5z M319,397.5v-60h15v60H319z M455,442.5h-60v-30h7.5
				c4.142,0,7.5-3.357,7.5-7.5v-67.5h22.5c4.142,0,7.5-3.357,7.5-7.5s-3.358-7.5-7.5-7.5h-395c-4.142,0-7.5,3.357-7.5,7.5
				s3.358,7.5,7.5,7.5H60V405c0,4.143,3.358,7.5,7.5,7.5H75v30H15v-415h440V442.5z M380,397.5v-60h15v60H380z"/>
			<circle cx="387.5" cy="105" r="7.5"/>
			<circle cx="387.5" cy="60" r="7.5"/>
			<circle cx="387.5" cy="225" r="7.5"/>
			<circle cx="72.5" cy="225" r="7.5"/>
			<path d="M324.5,187.5c12.407,0,22.5-10.094,22.5-22.5s-10.093-22.5-22.5-22.5c-12.407,0-22.5,10.094-22.5,22.5
				S312.093,187.5,324.5,187.5z M324.5,157.5c4.136,0,7.5,3.364,7.5,7.5s-3.364,7.5-7.5,7.5s-7.5-3.364-7.5-7.5
				S320.364,157.5,324.5,157.5z"/>
			<path d="M387.5,187.5c12.407,0,22.5-10.094,22.5-22.5s-10.093-22.5-22.5-22.5c-12.407,0-22.5,10.094-22.5,22.5
				S375.093,187.5,387.5,187.5z M387.5,157.5c4.136,0,7.5,3.364,7.5,7.5s-3.364,7.5-7.5,7.5s-7.5-3.364-7.5-7.5
				S383.364,157.5,387.5,157.5z"/>
			<path d="M72.5,187.5c12.407,0,22.5-10.094,22.5-22.5s-10.093-22.5-22.5-22.5S50,152.594,50,165S60.093,187.5,72.5,187.5z
				 M72.5,157.5c4.136,0,7.5,3.364,7.5,7.5s-3.364,7.5-7.5,7.5S65,169.136,65,165S68.364,157.5,72.5,157.5z"/>
			<path d="M135.5,142.5c-12.407,0-22.5,10.094-22.5,22.5s10.093,22.5,22.5,22.5S158,177.406,158,165S147.907,142.5,135.5,142.5z
				 M135.5,172.5c-4.136,0-7.5-3.364-7.5-7.5s3.364-7.5,7.5-7.5s7.5,3.364,7.5,7.5S139.636,172.5,135.5,172.5z"/>
			<path d="M198.5,142.5c-12.407,0-22.5,10.094-22.5,22.5s10.093,22.5,22.5,22.5S221,177.406,221,165S210.907,142.5,198.5,142.5z
				 M198.5,172.5c-4.136,0-7.5-3.364-7.5-7.5s3.364-7.5,7.5-7.5s7.5,3.364,7.5,7.5S202.636,172.5,198.5,172.5z"/>
			<path d="M261.5,187.5c12.407,0,22.5-10.094,22.5-22.5s-10.093-22.5-22.5-22.5c-12.407,0-22.5,10.094-22.5,22.5
				S249.093,187.5,261.5,187.5z M261.5,157.5c4.136,0,7.5,3.364,7.5,7.5s-3.364,7.5-7.5,7.5s-7.5-3.364-7.5-7.5
				S257.364,157.5,261.5,157.5z"/>
			<path d="M261.5,247.5c12.407,0,22.5-10.094,22.5-22.5s-10.093-22.5-22.5-22.5c-12.407,0-22.5,10.094-22.5,22.5
				S249.093,247.5,261.5,247.5z M261.5,217.5c4.136,0,7.5,3.364,7.5,7.5s-3.364,7.5-7.5,7.5s-7.5-3.364-7.5-7.5
				S257.364,217.5,261.5,217.5z"/>
			<path d="M324.5,307.5c12.407,0,22.5-10.094,22.5-22.5s-10.093-22.5-22.5-22.5c-12.407,0-22.5,10.094-22.5,22.5
				S312.093,307.5,324.5,307.5z M324.5,277.5c4.136,0,7.5,3.364,7.5,7.5s-3.364,7.5-7.5,7.5s-7.5-3.364-7.5-7.5
				S320.364,277.5,324.5,277.5z"/>
			<path d="M387.5,307.5c12.407,0,22.5-10.094,22.5-22.5s-10.093-22.5-22.5-22.5c-12.407,0-22.5,10.094-22.5,22.5
				S375.093,307.5,387.5,307.5z M387.5,277.5c4.136,0,7.5,3.364,7.5,7.5s-3.364,7.5-7.5,7.5s-7.5-3.364-7.5-7.5
				S383.364,277.5,387.5,277.5z"/>
			<path d="M72.5,307.5c12.407,0,22.5-10.094,22.5-22.5s-10.093-22.5-22.5-22.5S50,272.594,50,285S60.093,307.5,72.5,307.5z
				 M72.5,277.5c4.136,0,7.5,3.364,7.5,7.5s-3.364,7.5-7.5,7.5S65,289.136,65,285S68.364,277.5,72.5,277.5z"/>
			<path d="M135.5,262.5c-12.407,0-22.5,10.094-22.5,22.5s10.093,22.5,22.5,22.5S158,297.406,158,285S147.907,262.5,135.5,262.5z
				 M135.5,292.5c-4.136,0-7.5-3.364-7.5-7.5s3.364-7.5,7.5-7.5s7.5,3.364,7.5,7.5S139.636,292.5,135.5,292.5z"/>
			<path d="M198.5,262.5c-12.407,0-22.5,10.094-22.5,22.5s10.093,22.5,22.5,22.5S221,297.406,221,285S210.907,262.5,198.5,262.5z
				 M198.5,292.5c-4.136,0-7.5-3.364-7.5-7.5s3.364-7.5,7.5-7.5s7.5,3.364,7.5,7.5S202.636,292.5,198.5,292.5z"/>
			<path d="M261.5,307.5c12.407,0,22.5-10.094,22.5-22.5s-10.093-22.5-22.5-22.5c-12.407,0-22.5,10.094-22.5,22.5
				S249.093,307.5,261.5,307.5z M261.5,277.5c4.136,0,7.5,3.364,7.5,7.5s-3.364,7.5-7.5,7.5s-7.5-3.364-7.5-7.5
				S257.364,277.5,261.5,277.5z"/>
			<path d="M57.5,127.5h156c4.142,0,7.5-3.357,7.5-7.5V50c0-4.143-3.358-7.5-7.5-7.5h-96c-4.142,0-7.5,3.357-7.5,7.5
				s3.358,7.5,7.5,7.5H206v55H65v-55h22.5c4.142,0,7.5-3.357,7.5-7.5s-3.358-7.5-7.5-7.5h-30c-4.142,0-7.5,3.357-7.5,7.5v70
				C50,124.143,53.358,127.5,57.5,127.5z"/>
			<path d="M261.5,127.5c12.407,0,22.5-10.094,22.5-22.5s-10.093-22.5-22.5-22.5c-12.407,0-22.5,10.094-22.5,22.5
				S249.093,127.5,261.5,127.5z M261.5,97.5c4.136,0,7.5,3.364,7.5,7.5s-3.364,7.5-7.5,7.5s-7.5-3.364-7.5-7.5
				S257.364,97.5,261.5,97.5z"/>
		</g>
	</g>
</g>
<g>
</g>
<g>
</g>
<g>
</g>
<g>
</g>
<g>
</g>
<g>
</g>
<g>
</g>
<g>
</g>
<g>
</g>
<g>
</g>
<g>
</g>
<g>
</g>
<g>
</g>
<g>
</g>
<g>
</g>
</svg>
