<?xml version="1.0" encoding="utf-8"?>
<!-- Generated by IcoMoon.io -->
<!DOCTYPE svg PUBLIC "-//W3C//DTD SVG 1.1//EN" "http://www.w3.org/Graphics/SVG/1.1/DTD/svg11.dtd">
<svg version="1.1" xmlns="http://www.w3.org/2000/svg" xmlns:xlink="http://www.w3.org/1999/xlink" width="512" height="512" viewBox="0 0 512 512">
<g>
</g>
	<path d="M355.082 199.301l2.048-1.034 3.072-0.522h2.274l-4.844-6.656-7.137-13.762-3.082-13.793-0.512-0.502-3.051-9.728-1.536-5.612-0.512-1.034-2.539-7.127v-0.532l-10.23-20.941-11.745-24.505-5.11-15.329-1.003-1.536-4.598-7.659-4.096-6.165-4.096-8.141-2.539-11.745v-0.502l-2.068-7.67-1.003-2.55-2.027-3.072-3.072-2.038-2.55-1.536-3.082-1.044h-3.062l-3.594 1.044-4.045 2.55-2.079 1.024-2.539 3.072-1.536 2.038-1.536 3.574-3.563 7.66-0.502 2.048-2.068 14.316-0.512 0.973v18.934l0.512 0.532 0.522 8.141 1.546-2.007 1.515-1.556 5.11-4.076 2.55-1.556 2.58-0.502v-17.377l2.027-12.779 3.051-7.117 1.034-2.55 1.003-1.054 2.058-0.492 1.526 6.636 3.082 12.77 0.491 1.546 4.608 9.196 0.522 0.512 4.055 6.103 4.096 7.168 4.096 12.759 6.594 3.072 2.068 1.014 3.092 3.072 2.027 3.082 2.058 5.591 0.502 2.069v6.615l-0.502 1.546-1.024 5.622 8.182 17.367 2.529 6.113 1.536 6.134h0.502l3.062 9.708 3.082 13.804 0.512 1.506 7.639 15.862 1.024 1.034 4.086 5.56 2.038-3.021z" fill="#000000" />
	<path d="M351.56 227.779l-0.574 3.686-1.014 2.038-1.014 3.062 13.773-20.429h0.512l0.942-2.345-1.945-1.219z" fill="#000000" />
	<path d="M347.413 213.084l2.058 2.54-1.884-2.816z" fill="#000000" />
	<path d="M142.582 215.624l0.522-0.522 3.062-6.636-32.174-18.893-12.769-11.244-3.574-4.598-0.522-3.062v-3.072l0.522-1.536 2.038-1.526 1.014-0.492 5.489 1.382-1.915-1.382 8.13-11.684-20.889-16.415-4.608-4.608-1.014-3.564 0.512-4.076 1.536-3.093 2.048-2.028 3.052-0.522 3.82 0.328-1.772-1.352 8.674-11.223 0.389 0.307 0.123-0.307-2.54-2.058-7.158-6.636-2.56-3.072-0.502-3.574 0.502-3.564 1.546-3.574 4.086-3.082 1.516-0.481h3.072l3.072 0.481 3.072 2.079 5.632 3.001 8.653-11.192 1.249 0.921-0.727-1.945v-2.048l0.512-3.052 1.526-2.058 2.038-2.038h3.082l4.588 1.526 9.196 5.622 12.268 7.67 18.361 12.257h0.522l42.414 21.954 2.54-4.076h0.502l4.608-7.65-42.916-22.487-18.37-11.766v-0.492l-12.298-7.67-10.179-6.114-1.536-0.512-7.137-2.56h-3.062l-5.632 0.512-3.574 1.536-5.11 3.563-2.048 2.078-2.54 4.578-1.055 2.55-0.502 2.529-4.076-1.526h-8.182l-1.526 0.512-3.584 1.014-2.55 1.546-5.622 5.12-2.028 2.028-3.093 5.612-0.471 2.57-1.044 6.114v2.079l1.044 5.612 1.014 3.062 4.086 5.1v0.522h-1.034l-4.588 4.076-1.526 2.017-3.082 5.632-1.024 3.093-0.512 6.626 0.512 2.55 1.526 6.134 2.069 3.574 6.123 6.134 0.502 0.492 8.694 6.646-3.574 3.052-1.546 2.048-2.048 3.594-1.014 3.072v7.66l1.014 5.11 1.034 3.062 5.11 6.615 1.024 1.034 13.793 12.247 1.034 0.532 34.693 20.459z" fill="#000000" />
	<path d="M115.005 85.893l-0.993-0.563-0.020 0.020 30.628 22.477 0.522 0.522 39.332 26.573 3.082-4.086 0.502-0.512 5.12-6.626-40.346-27.095-28.918-21.545 0.788 2.15z" fill="#000000" />
	<path d="M114.012 85.33l0.993 0.563 9.698-8.683-0.788-2.15-1.249-0.921z" fill="#000000" />
	<path d="M96.86 118.385l36.045 27.259h0.492l31.683 23.010 6.636-12.81-30.137-21.422-37.427-28.303-4.987 12.462z" fill="#000000" />
	<path d="M95.088 117.033l1.772 1.352 2.304 0.195 4.987-12.462-0.389-0.307z" fill="#000000" />
	<path d="M106.834 165.571l-0.645-0.143 32.307 23.122v0.532l12.769 7.629 6.144-12.769-11.244-7.148-33.721-24.494-0.041 0.061 0.563 0.44z" fill="#000000" />
	<path d="M106.189 165.427l0.645 0.143 6.134-12.769-0.563-0.44-8.13 11.684z" fill="#000000" />
	<path d="M384.205 210.514l1.526-0.226-18.381-11.53-3.594-1.014h-1.28l0.768 1.014 5.11 5.15-3.574 9.175-0.502 0.492-0.092 0.215 13.721 8.591 4.731-8.806z" fill="#000000" />
	<path d="M364.237 277.627l30.69-51.149-2.56-1.147z" fill="#000000" />
	<path d="M349.962 204.862l-4.577 6.677 2.027 1.034 0.174 0.236 3.911-5.868z" fill="#000000" />
	<path d="M351.498 227.87l0.062-0.092 0.44-2.959z" fill="#000000" />
	<path d="M324.956 315.73l-11.243-8.683-3.584 7.168-4.096 5.099 14.101 10.271 30.853-57.272z" fill="#000000" />
	<path d="M364.779 213.084l3.574-9.175-5.11-5.15-0.768-1.014h-2.274l-3.072 0.522-2.048 1.034-3.082 2.54-2.038 3.021 1.536 2.078-3.911 5.868 1.884 2.816 2.027 5.612 0.502 3.584-0.44 2.959 10.68-15.207 1.945 1.219 0.092-0.215z" fill="#000000" />
	<path d="M455.7 239.114l-61.808-28.601-3.574-0.512h-2.56l-2.027 0.286 7.67 4.813 6.123 3.584-3.574 6.134-1.024 1.659 48.016 21.852-67.922 129.72-48.528-30.137 37.745-70.287-31.109 51.865-4.096 7.199-6.134-5.099-2.765-2.007-7.957 14.745-0.522 1.045-1.024 2.539v3.574l0.543 3.584 3.051 2.038 60.272 36.782 6.134 4.075 3.574-6.635 75.070-143.001 3.072-6.144z" fill="#000000" />
	<path d="M377.907 222.382l-26.921 49.93 29.133-48.517z" fill="#000000" />
	<path d="M329.031 336.691l4.096-7.199 31.109-51.865 28.13-52.296 2.56 1.147 1.024-1.659 3.574-6.134-6.123-3.584-7.67-4.813-1.526 0.226-1.567 3.062-4.731 8.806 2.212 1.413-29.133 48.517-30.853 57.272 2.765 2.007z" fill="#000000" />
	<path d="M136.151 342.149l0.645-0.338 0.399-17.879-1.157-0.676-14.377 13.363 0.502 1.024 13.988 4.505zM125.655 340.91l1.157 0.676 0.389-17.879 13.343 4.885-0.512-1.045-14.377 13.363z" fill="#000000" />
	<path d="M324.27 296.028l9.165-22.978-0.44 0.942 6.646-12.759c-0.164 0.297 11.079-19.65 11.079-19.65 0.031-0.051 5.13-9.226 5.13-9.226l1.188-3.512 1.034-7.158-0.635-5.294-2.058-5.11-3.502-4.475-5.611-4.055-5.038-1.905-5.622-0.532-2.959 0.154-5.13 1.034-2.908 1.044-11.223 6.134-1.822 1.27c0 0-9.636 10.803-9.072 7.782 0.205-1.044 0.327-1.751 0.327-1.751-0.123 0.594 2.427-9.584 2.427-9.584 0.021-0.113 8.714-36.423 8.714-36.423-0.010 0.010 6.615-27.556 6.615-27.556 0.123-0.553 4.24-23.030 4.24-23.030l0.164-1.843v-6.635l-0.358-2.724-1.546-5.612-3.236-5.090-3.615-3.072-2.345-1.495-6.605-3.052-5.099-0.921-0.471-0.215-2.027-4.178-4.557-5.642-5.069-3.379-5.13-1.505-2.877-0.409h-4.075l-2.222 0.236-4.587 1.024-4.25 2.058-5.632 4.578-1.997 2.192 0.399 0.215-5.427-2.089-6.615-0.532-4.055 0.492-6.144 2.048-4.004 2.468-3.574 3.564-1.464 1.823-7.649 12.267c0.092-0.144-5.571 6.267-5.571 6.267l-6.595-0.573-4.086 1.014-3.43 1.567-5.11 3.594-2.13 2.017-5.653 7.127c-0.492 0.686-13.742 20.603-13.742 20.603l-0.573 0.973-15.36 29.645c-0.246 0.522-15.565 34.734-15.565 34.734-0.266 0.645-10.977 29.767-10.977 29.767l-0.358 1.208-3.584 15.309-0.236 1.598-1.014 14.315c-0.031 0.717-0.031 20.163-0.031 20.163v19.917c0.041-0.88-1.004 11.356-1.004 11.356l0.645-2.796-2.55 6.635 5.089-5.54-1.403 0.676-0.85 17.961 66.775 40.683c-0.041-0.021 29.072 17.858 29.072 17.858l14.111-3.399 8.704-14.295-1.822 2.222 6.124-5.622-1.464 1.116 9.687-6.123c0.041-0.021 11.295-7.199 11.295-7.199l1.413-1.075 12.769-11.725 1.25-1.362 14.315-18.923c-0.092 0.123 16.231-20.798 16.231-20.798l0.942-1.464 7.69-14.315 0.522-1.045zM298.988 300.267l-16.322 20.921c-0.103 0.123-14.408 19.036-14.408 19.036l1.239-1.362-12.769 11.704 1.423-1.075-11.254 7.158c0.030-0.021-9.656 6.103-9.656 6.103l-1.454 1.116-6.124 5.622-1.822 2.222-3.154 5.182-20.552-12.175c-0.030-0.021-58.634-35.604-58.634-35.604l0.645-2.796 1.044-12.237c0.030-0.86 0.030-20.777 0.030-20.777v-19.435c-0.020 0.717 0.994-13.599 0.994-13.599l-0.246 1.618 3.584-15.309-0.358 1.198 10.711-29.123c-0.256 0.645 15.053-33.556 15.053-33.556-0.256 0.532 15.104-29.113 15.104-29.113l-0.573 0.942 13.25-19.917c-0.502 0.676 3.021-4.434 3.021-4.434l19.016-0.266 11.254-17.357c0.092-0.144 7.751-12.411 7.751-12.411l4.813 1.977 17.971 1.936 5.642-9.073 8.581 0.461-0.246 1.833-0.307 0.441 15.411 10.814 7.25 2.693-0.368 3.932 0.174-1.853-4.116 22.477c0.123-0.542-6.512 27.034-6.512 27.034 0 0.010-8.694 36.322-8.694 36.322 0.031-0.113-2.519 10.055-2.519 10.055-0.133 0.594-2.161 11.326-2.161 11.326-0.062 0.379-3.144 20.797-3.144 20.797 0.062-0.327-0.983 5.294-0.983 5.294l18.104 8.222 7.68-9.718c-0.481 0.573 11.243-12.196 11.243-12.196l-0.809 0.788 12.267-10.721-1.833 1.27 8.325-5.069 2.161-0.87 4.26 1.69-5.099 9.175c0.031-0.051-11.213 19.876-11.213 19.876-0.164 0.307-6.81 13.066-6.81 13.066l-0.43 0.942-9.165 22.978 0.491-1.045-7.69 14.315 0.932-1.444z" fill="#000000" />
	<path d="M302.479 298.373l-2.355 4.393 0.307 0.205 5.099-10.219-2.038 3.574z" fill="#000000" />
	<path d="M275.385 135.424h1.034l-1.833 10.526 0.297 0.215 2.068 1.014v-15.841l-1.863 4.035z" fill="#000000" />
	<path d="M275.385 135.424l-3.952 8.243 3.154 2.284 1.833-10.526z" fill="#000000" />
	<path d="M271.432 143.667l3.952-8.243-0.297-0.051-3.748 8.222z" fill="#000000" />
	<path d="M209.264 122.306l-16.958 40.755c0.082-0.205-12.554 28.446-12.554 28.446l18.739 8.263 12.626-28.651c0.092-0.195 17.049-40.95 17.049-40.95l-18.903-7.864z" fill="#000000" />
	<path d="M255.857 88.299l-30.023 66.345c-0.010 0.010-16.343 36.26-16.343 36.26-0.205 0.482-5.806 14.797-5.806 14.797l19.067 7.465 5.612-14.315c-0.205 0.471 16.138-35.779 16.138-35.779-0.010 0.010 30.014-66.335 30.014-66.335l-18.657-8.438z" fill="#000000" />
	<path d="M282.952 97.403l-26.542 57.211c-0.327 0.788-17.173 46.745-17.173 46.745l-0.461 1.69-1.034 5.632-0.164 1.833v7.158h20.48v-7.158l-0.174 1.843 1.034-5.632-0.461 1.69 16.845-45.957c-0.317 0.778 26.224-56.433 26.224-56.433l-18.575-8.622z" fill="#000000" />
	<path d="M120.832 358.39l10.137-14.459 86.978 54.221-9.749 17.838 17.91 9.943 13.312-24.023 0.983-2.478 0.502-2.038-0.778-7.065-0.512-1.014-3.779-4.147-100.117-61.798-3-1.239-2.038-0.502-5.448 0.205-1.536 0.481-5.314 3.891-14.326 20.429z" fill="#000000" />
	<path d="M228.188 410.235l-125.655-78.162-5.397-1.557h-3.052l-8.683 4.834-35.758 57.211 3.369 14.183 132.792 80.702 14.172-3.604 32.666-56.197 1.393-5.14-0.727-4.803-1.024-2.56-4.096-4.905zM211.138 423.885l-23.583 40.571-115.18-69.929 26.071-41.421 112.691 70.779z" fill="#000000" />
	<path d="M123.279 375.429l-0.993-2.539-2.365-3.563-1.567-1.536-2.355-1.721-1.014-0.543-4.802-1.178-3.123 0.215-2.55 0.533-1.925 0.604-3.584 1.536-3.686 2.683-3.564 4.065-0.799 1.045-3.072 4.577-1.433 3.257-1.014 4.116-0.174 4.055 0.492 3.041 0.615 2.181 1.034 2.58 3.41 4.423 2.028 1.495 6.103 2.017h2.56l3.164-0.502 3.082-1.003 2.816-1.423 3.574-2.58 2.294-2.284 4.086-5.622 1.597-3.338 1.526-5.622 0.348-2.683v-2.58l-0.707-3.707zM111.513 387.707l-4.076 5.642-3.574 2.539-3.072 1.045h-2.57l-2.028-1.536-1.014-2.56-0.532-3.082 1.055-4.075 3.062-4.598 3.564-3.584 3.574-2.017h4.618l1.526 1.536 1.024 2.56 0.532 2.539-2.089 5.591z" fill="#000000" />
</svg>
