<?xml version="1.0" encoding="iso-8859-1"?>
<!-- Generator: Adobe Illustrator 19.0.0, SVG Export Plug-In . SVG Version: 6.00 Build 0)  -->
<svg version="1.1" id="Layer_1" xmlns="http://www.w3.org/2000/svg" xmlns:xlink="http://www.w3.org/1999/xlink" x="0px" y="0px"
	 viewBox="0 0 470.633 470.633" style="enable-background:new 0 0 470.633 470.633;" xml:space="preserve">
<g>
	<g>
		<g>
			<path d="M461.421,14.456c-5.996-5.997-13.965-9.299-22.438-9.299c-5.248,0-10.433,1.318-14.995,3.812
				c-0.243,0.133-0.479,0.28-0.707,0.44l-58.725,41.165c-1.372,0.961-2.383,2.355-2.87,3.957l-4.405,14.472L203.327,216.442
				l-4.358-4.358c-2.832-2.832-4.368-6.655-4.326-10.766c0.043-4.169,1.697-8.095,4.658-11.056l25.101-25.101
				c10.297-10.297,10.297-27.052,0-37.349c-4.988-4.988-11.621-7.735-18.675-7.735c-7.054,0-13.687,2.747-18.675,7.735
				l-42.746,42.746c-8.264,8.264-17.922,22.223-21.988,31.78c-6.867,16.14-14.527,30.78-17.378,36.101
				c-7.847,3.654-35.285,16.404-66.724,30.698c-19.551,8.889-32.628,24.141-36.824,42.946c-4.483,20.09,1.978,42.23,17.727,60.741
				l57.55,67.645c13.855,16.287,30.633,25.009,47.804,25.008c1.999,0,4.006-0.118,6.012-0.357
				c19.234-2.286,35.762-15.278,46.525-36.557l39.514-77.449c6.08-2.148,20.411-7.241,28.786-10.446
				c10.461-4.003,24.313-14.37,32.035-22.092c4.987-4.988,7.735-11.62,7.735-18.675s-2.748-13.687-7.735-18.674
				c-10.297-10.297-27.052-10.297-37.349,0c-4.45,4.448-11.688,4.449-16.137,0l-5.867-5.867L387.078,98.8l14.473-4.405
				c1.178-0.358,2.249-1.001,3.12-1.872l25.583-25.584c2.885,0.846,5.894,1.284,8.904,1.284c8.412,0,16.318-3.275,22.265-9.221
				C473.704,46.721,473.704,26.738,461.421,14.456z M250.601,291.834c2.154-2.155,5.02-3.342,8.067-3.342
				c3.047,0,5.913,1.187,8.068,3.342c2.154,2.155,3.342,5.02,3.342,8.068c0,3.048-1.188,5.913-3.342,8.068
				c-6.602,6.601-18.941,15.686-26.79,18.689c-10.411,3.984-31.023,11.229-31.23,11.302c-1.817,0.638-3.319,1.952-4.194,3.667
				l-40.887,80.141c-8.436,16.676-20.838,26.781-34.923,28.456c-14.083,1.671-28.512-5.242-40.62-19.476l-57.55-67.645
				c-12.671-14.894-17.961-32.3-14.512-47.755c3.146-14.101,13.23-25.664,28.394-32.558c37.185-16.907,68.788-31.659,69.103-31.806
				c1.437-0.671,2.624-1.779,3.391-3.167c0.416-0.753,10.294-18.673,19.202-39.608c3.313-7.787,11.919-20.173,18.793-27.046
				l42.746-42.746c4.447-4.448,11.688-4.448,16.135,0c4.449,4.449,4.449,11.687,0,16.136l-25.101,25.101
				c-5.753,5.753-8.967,13.392-9.05,21.509c-0.084,8.175,3.013,15.82,8.719,21.526l4.129,4.129l-43.582,41.737
				c-1.457,1.395-2.29,3.319-2.313,5.336c-0.021,2.017,0.771,3.958,2.196,5.384l28.012,28.012c1.408,1.407,3.315,2.197,5.304,2.197
				c0.027,0,0.054,0,0.081,0c2.017-0.022,3.94-0.855,5.336-2.312l20.088-20.976l5.638,5.637
				C223.549,302.131,240.303,302.13,250.601,291.834z M181.992,291.263l-17.173-17.174L363.771,83.556l8.754,8.753L181.992,291.263z
				 M450.815,48.396c-3.113,3.113-7.252,4.828-11.655,4.828c-2.565,0-5.124-0.603-7.399-1.743c-2.888-1.447-6.378-0.882-8.663,1.402
				l-27.709,27.709l-10.25,3.12l-12.77-12.769l2.913-9.57l56.232-39.418c2.281-1.177,4.854-1.797,7.468-1.797
				c4.467,0,8.669,1.742,11.832,4.906C457.248,31.496,457.248,41.963,450.815,48.396z"/>
			<path d="M124.695,326.263c-2.93-2.929-7.678-2.929-10.607,0c-2.929,2.929-2.929,7.677,0,10.606l26.337,26.337
				c1.465,1.465,3.385,2.197,5.304,2.197s3.839-0.732,5.304-2.197c2.929-2.929,2.929-7.677,0-10.606L124.695,326.263z"/>
			<path d="M126.556,281.975c-2.93-2.929-7.678-2.929-10.607,0c-2.929,2.929-2.929,7.677,0,10.606l26.337,26.337
				c1.465,1.465,3.385,2.197,5.304,2.197s3.839-0.732,5.304-2.197c2.929-2.929,2.929-7.677,0-10.606L126.556,281.975z"/>
			<path d="M82.968,330.687c-2.93-2.929-7.678-2.929-10.607,0L51.148,351.9c-1.406,1.406-2.196,3.314-2.196,5.303
				s0.79,3.897,2.196,5.303l42.427,42.426c1.465,1.465,3.385,2.197,5.304,2.197s3.839-0.732,5.304-2.197l21.213-21.213
				c1.406-1.406,2.196-3.314,2.196-5.303s-0.79-3.897-2.196-5.303L82.968,330.687z M98.878,389.023l-31.82-31.82l10.606-10.606
				l31.82,31.82L98.878,389.023z"/>
		</g>
	</g>
</g>
<g>
</g>
<g>
</g>
<g>
</g>
<g>
</g>
<g>
</g>
<g>
</g>
<g>
</g>
<g>
</g>
<g>
</g>
<g>
</g>
<g>
</g>
<g>
</g>
<g>
</g>
<g>
</g>
<g>
</g>
</svg>
