<?xml version="1.0" encoding="iso-8859-1"?>
<!-- Generator: Adobe Illustrator 19.0.0, SVG Export Plug-In . SVG Version: 6.00 Build 0)  -->
<svg version="1.1" id="Capa_1" xmlns="http://www.w3.org/2000/svg" xmlns:xlink="http://www.w3.org/1999/xlink" x="0px" y="0px"
	 viewBox="0 0 512 512" style="enable-background:new 0 0 512 512;" xml:space="preserve">
<path style="fill:#62D6EA;" d="M512,256c0,141.385-114.615,256-256,256c-17.074,0-33.761-1.672-49.904-4.869
	c-42.224-8.338-80.729-27.063-112.713-53.415c-1.348-1.097-2.685-2.226-4.012-3.365c-2.435-2.09-4.827-4.221-7.168-6.395
	c-1.275-1.181-2.539-2.372-3.793-3.584c-2.309-2.215-4.566-4.472-6.781-6.781c-1.212-1.254-2.403-2.518-3.594-3.793
	c-2.163-2.351-4.305-4.744-6.374-7.178c-1.149-1.327-2.278-2.664-3.385-4.012c-26.331-31.984-45.066-70.478-53.405-112.703
	C1.672,289.761,0,273.074,0,256C0,114.615,114.615,0,256,0S512,114.615,512,256z"/>
<circle style="fill:#82ECF7;" cx="256" cy="192.784" r="184.947"/>
<path style="fill:#EDBB57;" d="M306.51,385.431c-9.906,9.927-21.682,17.074-34.534,21.546c-33.29,11.63-57.01,41.315-60.886,76.372
	c-0.909,8.15-2.57,16.112-4.995,23.782C104.741,487.111,24.889,407.259,4.869,305.904c7.67-2.435,15.632-4.086,23.782-4.995
	c35.056-3.866,64.752-27.585,76.361-60.886c4.472-12.852,11.64-24.618,21.556-34.523c34.314-34.314,70.666-15.485,117.29,13.218
	l49.403,49.413C321.996,314.765,340.825,351.138,306.51,385.431z"/>
<path style="fill:#5B5560;" d="M252.765,280.171L135.299,397.638c0,0,34.738,53.455,64.784,23.408
	c59.601-59.601,69.878-102.019,62.607-136.632C255.419,249.801,252.765,280.171,252.765,280.171z"/>
<path style="fill:#FFFFFF;" d="M239.026,326.721c0.372,14.595-5.004,29.295-16.144,40.434c-21.55,21.566-56.489,21.566-78.039,0
	c-21.55-21.55-21.55-56.489,0-78.039c11.125-11.125,25.839-16.517,40.42-16.144c13.642,0.343,27.195,5.733,37.619,16.144
	S238.683,313.079,239.026,326.721z"/>
<path style="fill:#2D2B2A;" d="M233.26,326.869c0.333,13.07-4.482,26.233-14.457,36.209c-19.298,19.312-50.586,19.312-69.884,0
	c-19.298-19.298-19.298-50.586,0-69.884c9.962-9.962,23.139-14.791,36.195-14.457c12.216,0.307,24.352,5.135,33.689,14.457
	C228.139,302.517,232.954,314.653,233.26,326.869z"/>
<path style="fill:#D8A589;" d="M233.275,326.873h-0.015c-0.31-12.221-5.12-24.36-14.452-33.677
	c-9.339-9.325-21.479-14.149-33.699-14.459l0.007-0.022l16.602-15.878l3.775-3.613l16.358-15.649l3.775-3.613l13.853-13.247
	l3.775-3.613l9.058-8.659l16.986-16.247l3.775-3.613l26.06-24.907l3.775-3.613l26.052-24.915l3.775-3.613l26.044-24.907l3.775-3.613
	l20.156-19.269l0.385,0.385l28.601,9.804l10.167,28.964l0.377,0.377l-19.269,20.156l-3.613,3.775l-24.907,26.044l-3.613,3.775
	l-24.915,26.052l-3.613,3.775l-24.915,26.052l-3.613,3.775l-16.247,16.986l-8.659,9.058l-3.613,3.775l-13.247,13.853l-3.613,3.775
	l-15.641,16.365l-3.613,3.775L233.275,326.873z"/>
<g>
	<polygon style="fill:#967F72;" points="399.361,153.206 358.783,112.629 362.559,109.015 402.974,149.431 	"/>
	<polygon style="fill:#967F72;" points="370.842,183.026 328.963,141.148 332.738,137.535 374.455,179.25 	"/>
	<polygon style="fill:#967F72;" points="342.314,212.854 299.135,169.675 302.911,166.063 345.927,209.078 	"/>
	<polygon style="fill:#967F72;" points="313.787,242.682 269.301,198.195 273.076,194.582 317.4,238.905 	"/>
	<polygon style="fill:#967F72;" points="285.268,272.501 239.48,226.715 243.256,223.101 288.88,268.726 	"/>
	<polygon style="fill:#967F72;" points="268.407,290.131 221.852,243.575 225.627,239.962 272.019,286.355 	"/>
	<polygon style="fill:#967F72;" points="249.152,310.272 201.718,262.837 205.493,259.225 252.765,306.496 	"/>
</g>
<g>
	<path style="fill:#FFFFFF;" d="M391.847,92.432L61.659,422.619c-1.149-1.327-2.278-2.664-3.385-4.012L388.148,88.743
		L391.847,92.432z"/>
	<path style="fill:#FFFFFF;" d="M402.317,102.902L71.628,433.591c-1.212-1.254-2.403-2.518-3.594-3.793L398.618,99.213
		L402.317,102.902z"/>
	<path style="fill:#FFFFFF;" d="M412.787,113.371L82.202,443.956c-1.275-1.181-2.539-2.372-3.793-3.584l330.679-330.689
		L412.787,113.371z"/>
	<path style="fill:#FFFFFF;" d="M423.257,123.852L93.383,453.716c-1.348-1.097-2.685-2.226-4.012-3.365l330.188-330.198
		L423.257,123.852z"/>
</g>
<g>
	
		<rect x="423.952" y="44.93" transform="matrix(-0.7071 -0.7071 0.7071 -0.7071 756.7106 410.6132)" style="fill:#7F6151;" width="78.889" height="7.314"/>
	
		<rect x="380.32" y="88.575" transform="matrix(-0.7071 -0.7071 0.7071 -0.7071 651.3646 454.2682)" style="fill:#7F6151;" width="78.889" height="7.314"/>
	
		<rect x="402.137" y="66.756" transform="matrix(-0.7071 -0.7071 0.7071 -0.7071 704.0374 432.4481)" style="fill:#7F6151;" width="78.889" height="7.314"/>
</g>
<g>
	<path style="fill:#DDDAE0;" d="M435.513,20.702c4.462-4.462,1.506-14.653-2.956-19.114c-4.462-4.462-5.785,1.45-10.246,5.912
		c-4.462,4.462-10.374,5.785-5.912,10.246C420.861,22.207,431.052,25.163,435.513,20.702z"/>
	<path style="fill:#DDDAE0;" d="M413.693,42.522c4.462-4.462,1.506-14.653-2.956-19.114s-5.785,1.45-10.246,5.912
		s-10.374,5.785-5.912,10.246C399.041,44.028,409.231,46.984,413.693,42.522z"/>
	<path style="fill:#DDDAE0;" d="M391.872,64.342c4.462-4.462,1.506-14.653-2.956-19.114c-4.462-4.462-5.785,1.45-10.246,5.912
		s-10.374,5.785-5.912,10.246C377.221,65.848,387.411,68.804,391.872,64.342z"/>
	<path style="fill:#DDDAE0;" d="M491.296,76.484c4.462-4.462,14.653-1.506,19.114,2.956c4.462,4.462-1.45,5.785-5.912,10.246
		c-4.462,4.462-5.785,10.374-10.246,5.912C489.791,91.136,486.835,80.946,491.296,76.484z"/>
	<path style="fill:#DDDAE0;" d="M469.476,98.305c4.462-4.462,14.653-1.506,19.114,2.956c4.462,4.462-1.45,5.785-5.912,10.246
		c-4.462,4.462-5.785,10.374-10.246,5.912C467.97,112.957,465.014,102.767,469.476,98.305z"/>
	<path style="fill:#DDDAE0;" d="M447.656,120.125c4.462-4.462,14.653-1.506,19.114,2.956s-1.45,5.785-5.912,10.246
		c-4.462,4.462-5.785,10.374-10.246,5.912C446.149,134.777,443.193,124.587,447.656,120.125z"/>
</g>
<path style="fill:#F7AD3E;" d="M471.936,101.798l21.87-21.884l4.507-4.507c3.51-3.495,4.655-8.704,2.963-13.366L489.61,29.997
	c-1.3-3.532-4.071-6.317-7.603-7.603l-32.051-11.688c-4.655-1.684-9.871-0.532-13.366,2.963l-26.392,26.392l-21.87,21.884
	l-5.231,5.216c-6.339,6.339-6.332,16.617,0.007,22.971l38.768,38.768c6.347,6.332,16.617,6.332,22.964,0l5.216-5.231
	L471.936,101.798z M412.377,86.319c-3.406,3.406-8.918,3.406-12.317,0.007c-3.399-3.399-3.406-8.918,0-12.325l44.331-44.331
	c3.399-3.399,8.918-3.392,12.317,0.007c1.699,1.699,2.55,3.924,2.55,6.154s-0.849,4.455-2.55,6.154L412.377,86.319z
	 M437.993,111.936c-3.406,3.406-8.918,3.406-12.325,0c-3.399-3.399-3.399-8.911,0.007-12.316l44.331-44.331
	c3.399-3.399,8.911-3.399,12.309,0c1.706,1.706,2.557,3.931,2.557,6.162s-0.85,4.455-2.55,6.154L437.993,111.936z"/>
<g>
</g>
<g>
</g>
<g>
</g>
<g>
</g>
<g>
</g>
<g>
</g>
<g>
</g>
<g>
</g>
<g>
</g>
<g>
</g>
<g>
</g>
<g>
</g>
<g>
</g>
<g>
</g>
<g>
</g>
</svg>
