<svg id="Capa_1" enable-background="new 0 0 512 512" height="512" viewBox="0 0 512 512" width="512" xmlns="http://www.w3.org/2000/svg"><path d="m204.052 131c16.73 7.891 23.864 27.827 15.973 44.544l-39.404 83.516 73.512-73.524c12.911-12.911 33.76-13.055 46.874-.456 13.511 13.006 13.187 35.057-.072 48.315l-74.605 74.605 91.947-47.294c16.429-8.455 36.618-1.982 45.061 14.448 8.467 16.429 1.982 36.618-14.448 45.061l-79.805 41.061h63.712c18.471 0 33.459 14.976 33.459 33.459 0 18.471-14.976 33.471-33.459 33.471h-29.184c-45.926 0-91.191 10.845-132.108 31.67l-37.975 19.336-32.787 32.788-33.712-33.712-63.22-63.22c20.189-20.201 32.787-32.799 32.787-32.799-5.092-5.08-8.191-11.409-9.32-17.991l-8.287-48.303-14.7-85.69c-3.123-18.231 9.103-35.525 27.322-38.647 18.231-3.123 35.513 9.115 38.635 27.334l11.793 68.72c16.874-20.237 31.142-42.563 42.407-66.462l35.057-74.256c7.893-16.706 27.829-23.864 44.547-15.974z" fill="#f1d0a5"/><g fill="#f1b986"><path d="m25.802 309.178 49.276 88.777-44.184 44.184-27.082-27.07c20.189-20.201 32.787-32.799 32.787-32.799-5.092-5.08-8.191-11.409-9.32-17.991l-8.287-48.303z"/><path d="m366.255 394.734c0-12.594-45.3-12.026-74.745-10.327-12.978.749-23.592-10.191-22.43-23.139h63.709c18.485.008 33.466 14.989 33.466 33.466z"/><path d="m363.173 274.844c-7.116-11.668-75.994 24.946-111.273 44.741-10.251 5.752-23.132-.083-25.573-11.581l91.952-47.298c16.328-8.395 36.35-2.058 44.894 14.138z"/><path d="m180.624 259.062 73.517-73.517c12.866-12.866 33.598-13.072 46.695-.603-7.829-6.196-65.021 49.748-93.885 78.896-8.018 8.096-21.657 5.618-26.327-4.776z"/><path d="m171.51 459.88-37.977 19.336-96.935-96.935c-5.09-5.09-8.189-11.411-9.313-18.005l-.008-.008-22.979-133.987c-3.057-17.799 8.536-34.697 26.045-38.39-20.302 8.354 22.327 226.095 141.167 267.989z"/><path d="m110.495 304.616c-14.039-12.254-28.45-16.931-28.45-16.931 16.873-20.228 31.135-42.555 42.423-66.452l35.044-74.244c7.891-16.716 27.83-23.881 44.546-15.989-15.179-4.702-92.456 171.088-93.555 173.591z"/></g><path d="m197.205 160.512c17.409-6.25 36.551 2.802 42.792 20.203l31.192 86.918-.008-103.97c0-18.258 14.641-33.103 32.823-33.468 18.751-.357 34.113 15.464 34.113 34.215v105.507l31.574-98.459c5.639-17.596 24.491-27.294 42.079-21.647 17.604 5.63 27.294 24.492 21.647 42.079l-27.396 85.466 45.051-45.051c13.061-13.061 34.249-13.07 47.319 0 13.061 13.061 13.078 34.258.008 47.327l-20.636 20.636c-32.474 32.474-56.813 72.15-71.021 115.808l-13.18 40.525v55.399h-47.675-89.406c-.008-28.559-.008-55.407-.008-55.407-7.193.009-13.859-2.276-19.311-6.131l-40.015-28.296-70.986-50.198c-15.099-10.683-18.683-31.557-8.008-46.648 10.683-15.099 31.557-18.666 46.648-7.991l56.932 40.253c-2.378-26.241-8.076-52.117-17.01-76.982l-27.719-77.296c-6.235-17.392 2.801-36.551 20.201-42.792z" fill="#f1d0a5"/><path d="m197.154 412.544 97.618 27.931v71.525h-38.292c-.008-28.559-.008-55.407-.008-55.407-7.193.009-13.859-2.276-19.311-6.131l-40.015-28.296z" fill="#f1b986"/><path d="m498.388 232.304c-8.906-8.906-40.536 23.528-60.155 45.55-8.647 9.706-23.888 9.476-32.222-.501l45.049-45.049c13.077-13.065 34.264-13.065 47.328 0z" fill="#f1b986"/><path d="m411.434 149.709c-13.282-3.219-36.096 71.376-47.045 110.318-3.181 11.315-16.415 16.298-26.272 9.894l31.575-98.465c5.61-17.482 24.249-27.158 41.742-21.747z" fill="#f1b986"/><path d="m271.193 267.63v-103.969c0-18.195 14.514-33.001 32.592-33.445-9.917 1.155-10.8 81.155-10.599 122.175.056 11.395-11.341 19.287-21.993 15.239z" fill="#f1b986"/><path d="m294.772 445.4v11.2h-38.288c-7.202 0-13.859-2.276-19.32-6.144h-.011l-110.996-78.499c-14.746-10.423-18.49-30.562-8.727-45.559-5.554 13.323 72.091 71.38 158.231 94.151 11.271 2.979 19.111 13.192 19.111 24.851z" fill="#f1b986"/><path d="m221.731 357.574-.004.002c-2.372-26.235-8.075-52.107-16.991-76.986l-27.719-77.278c-6.24-17.4 2.793-36.565 20.193-42.805-9.962 5.25 22.618 97.925 42.451 151.487 6.495 17.542-1.246 37.123-17.93 45.58z" fill="#f1b986"/><path d="m115.511 107.644c-2.866 0-5.611-1.626-6.902-4.394l-27.774-59.514c-1.778-3.809-.131-8.338 3.678-10.116 3.81-1.778 8.339-.131 10.116 3.679l27.773 59.514c1.778 3.809.131 8.338-3.678 10.116-1.04.485-2.136.715-3.213.715z" fill="#f1d333"/><path d="m173.698 93.095c-4.204 0-7.612-3.408-7.612-7.612v-77.871c0-4.204 3.408-7.612 7.612-7.612s7.611 3.408 7.611 7.612v77.871c0 4.204-3.408 7.612-7.611 7.612z" fill="#f1d333"/><path d="m242.466 97.064c-.993 0-2.002-.195-2.974-.608-3.869-1.644-5.672-6.113-4.028-9.982l22.483-52.901c1.644-3.869 6.113-5.672 9.982-4.028s5.672 6.113 4.028 9.982l-22.483 52.901c-1.231 2.897-4.047 4.636-7.008 4.636z" fill="#f1d333"/><path d="m77.145 144.675c-1.386 0-2.788-.378-4.048-1.171l-35.709-22.484c-3.557-2.24-4.625-6.939-2.386-10.497 2.239-3.557 6.938-4.626 10.497-2.386l35.709 22.483c3.557 2.24 4.625 6.939 2.386 10.497-1.447 2.298-3.92 3.558-6.449 3.558z" fill="#f1d333"/></svg>