<?xml version="1.0" encoding="iso-8859-1"?>
<!-- Generator: Adobe Illustrator 19.0.0, SVG Export Plug-In . SVG Version: 6.00 Build 0)  -->
<svg version="1.1" id="Capa_1" xmlns="http://www.w3.org/2000/svg" xmlns:xlink="http://www.w3.org/1999/xlink" x="0px" y="0px"
	 viewBox="0 0 512.001 512.001" style="enable-background:new 0 0 512.001 512.001;" xml:space="preserve">
<polygon style="fill:#A66856;" points="144.112,152.779 166.648,129.851 137.711,100.914 114.979,123.646 "/>
<g>
	<path style="fill:#735458;" d="M422.867,431.447c-0.679,0-1.368-0.093-2.053-0.287c-3.984-1.131-6.298-5.279-5.166-9.264
		l1.438-5.066c3.43-12.083-2.837-28.771-15.593-41.527L106.629,80.438c-2.929-2.929-2.929-7.678,0-10.606
		c2.929-2.929,7.678-2.929,10.606,0l294.866,294.865c16.738,16.738,24.359,38.81,19.415,56.23l-1.438,5.067
		C429.141,429.294,426.136,431.447,422.867,431.447z"/>
	<path style="fill:#735458;" d="M452.207,126.876l-27.194-39.905l-39.927-27.186c-5.854-5.852-5.854-15.341,0-21.192l0,0
		c5.852-5.849,15.338-5.849,21.191,0l27.716,39.401l39.405,27.69c5.854,5.852,5.854,15.341,0,21.192l0,0
		C467.546,132.725,458.059,132.725,452.207,126.876z"/>
	<path style="fill:#735458;" d="M486.419,92.67l-26.49-40.617L419.298,25.58c-5.854-5.852-5.854-15.341,0-21.192l0,0
		c5.852-5.849,15.338-5.849,21.191,0l26.606,40.501l40.515,26.589c5.854,5.852,5.854,15.341,0,21.192l0,0
		C501.757,98.519,492.271,98.519,486.419,92.67z"/>
</g>
<path style="fill:#FFDEA9;" d="M112.006,113.088l314.958,314.958c1.562,1.562,1.562,4.095,0,5.657l-11.826,11.826
	c-1.562,1.562-4.095,1.562-5.657,0L94.523,130.571c-1.562-1.562-1.562-4.095,0-5.657l11.826-11.826
	C107.911,111.526,110.444,111.526,112.006,113.088z"/>
<path style="fill:#A66856;" d="M41.359,467.911C-28.873,396.022-6.162,282.969,83.036,261.39c0.732-0.177,1.498-0.141,2.213,0.096
	c7.026,2.329,46.852,14.34,66.717-5.525c11.761-11.761,15.628-29.044,12.233-47.013c-0.184-0.971-0.017-1.982,0.491-2.831
	c4.663-7.793,4.652-9.972,18.809-25.472c79.583-87.174,241.168,68.548,145.932,149.798c-15.794,13.47-14.952,11.564-23.342,16.799
	c-0.865,0.54-1.906,0.723-2.908,0.532c-18.015-3.431-35.361,0.42-47.15,12.204c-16.012,16.005-17.395,42.216-5.792,66.447
	c0.401,0.838,0.519,1.791,0.299,2.693C228.697,518.558,113.684,541.925,41.359,467.911z"/>
<path style="fill:#8F5040;" d="M285.304,166.023c45.7,37.173,69.954,103.458,18.116,147.683
	c-15.344,13.086-14.986,11.66-22.646,16.368c-1.282,0.788-2.813,1.102-4.294,0.835c-17.768-3.203-34.822,0.699-46.461,12.332
	c-15.857,15.85-17.367,41.711-6.125,65.744c0.607,1.297,0.793,2.762,0.444,4.151c-18.48,73.598-100.32,102.013-168.861,67.592
	c72.305,57.995,174.593,32.203,195.058-51.611c0.22-0.901,0.102-1.853-0.299-2.69c-11.603-24.231-10.221-50.443,5.792-66.448
	c11.789-11.784,29.135-15.635,47.15-12.204c1.002,0.191,2.043,0.008,2.908-0.532c8.39-5.235,7.547-3.33,23.342-16.799
	C390.455,278.382,346.032,195.743,285.304,166.023z"/>
<g>
	<path style="fill:#5C4346;" d="M193.16,442.324c-1.287,0-2.59-0.331-3.781-1.027c-5.556-3.251-11.772-11.801-12.29-22.89
		c-0.429-9.2,2.957-22.965,21.526-36.294c18.769-13.473,15.619-21.939,15.572-22.014c-2.211-3.502-1.165-8.134,2.338-10.346
		c3.502-2.211,8.134-1.165,10.346,2.338c0.5,0.792,11.892,19.667-19.509,42.208c-10.37,7.443-15.656,15.538-15.289,23.409
		c0.281,6.034,3.726,9.966,4.881,10.642c3.575,2.092,4.778,6.686,2.686,10.261C198.245,440.995,195.737,442.324,193.16,442.324z"/>
	<path style="fill:#5C4346;" d="M70.35,312.981c-0.11,1.282,0.108,2.609,0.7,3.855c2.764,5.814,10.751,12.738,21.755,14.201
		c9.13,1.214,23.134-0.983,38.001-18.345c15.028-17.548,23.194-13.687,23.265-13.634c3.301,2.503,8.005,1.856,10.508-1.445
		c2.503-3.3,1.856-8.005-1.445-10.508c-0.747-0.566-18.578-13.53-43.721,15.83c-8.302,9.695-16.819,14.271-24.63,13.232
		c-5.988-0.796-9.611-4.564-10.185-5.773c-1.779-3.741-6.253-5.332-9.994-3.553C72.109,308.028,70.57,310.414,70.35,312.981z"/>
	<path style="fill:#5C4346;" d="M186.851,371.773c-1.919,0-3.838-0.732-5.303-2.196l-39.199-39.192
		c-2.929-2.929-2.93-7.677-0.001-10.606c2.929-2.93,7.678-2.93,10.606-0.001l39.199,39.192c2.929,2.929,2.93,7.677,0.001,10.606
		C190.69,371.041,188.771,371.773,186.851,371.773z"/>
</g>
<g>
	<path style="fill:#735458;" d="M227.001,307.233l-22.323-22.311c-1.563-1.562-1.563-4.096,0-5.658L418.394,65.631l27.981,27.966
		L232.657,307.232C231.095,308.794,228.563,308.794,227.001,307.233z"/>
	<path style="fill:#735458;" d="M23.055,488.848L23.055,488.848c-3.549-3.548-3.953-9.085-0.934-12.802l58.803-72.403
		c1.495-1.841,4.256-1.984,5.933-0.307l21.725,21.721c1.678,1.678,1.535,4.439-0.307,5.934L35.86,489.782
		C32.141,492.8,26.604,492.396,23.055,488.848z"/>
</g>
<path style="fill:#8F5040;" d="M426.251,124.915L387.046,85.73c-1.802-1.801-1.048-5.38,1.629-7.725l76.413-66.952
	c2.351-2.06,5.36-2.425,6.943-0.843l29.473,29.458c1.576,1.575,1.221,4.566-0.82,6.913l-66.681,76.68
	C431.659,125.955,428.061,126.724,426.251,124.915z"/>
<polygon style="fill:#A66856;" points="509.311,47.471 479.446,77.336 457.813,55.702 434.644,32.543 464.509,2.678 487.677,25.837 
	"/>
<rect x="462.445" y="36.298" transform="matrix(-0.7071 0.7071 -0.7071 -0.7071 861.9709 -253.8489)" style="fill:#8F5040;" width="42.23" height="30.595"/>
<g>
	
		<rect x="352.316" y="132.374" transform="matrix(-0.7071 -0.7071 0.7071 -0.7071 536.3018 501.8918)" style="fill:#5C4346;" width="39.561" height="15"/>
	
		<rect x="322.614" y="162.074" transform="matrix(-0.7071 -0.7071 0.7071 -0.7071 464.5967 531.5905)" style="fill:#5C4346;" width="39.561" height="15"/>
	
		<rect x="292.919" y="191.781" transform="matrix(-0.7071 -0.7071 0.7071 -0.7071 392.8987 561.3064)" style="fill:#5C4346;" width="39.561" height="15"/>
	
		<rect x="263.218" y="221.471" transform="matrix(-0.7071 -0.7071 0.7071 -0.7071 321.2007 590.988)" style="fill:#5C4346;" width="39.561" height="15"/>
</g>
<g>
</g>
<g>
</g>
<g>
</g>
<g>
</g>
<g>
</g>
<g>
</g>
<g>
</g>
<g>
</g>
<g>
</g>
<g>
</g>
<g>
</g>
<g>
</g>
<g>
</g>
<g>
</g>
<g>
</g>
</svg>
