<?xml version="1.0" encoding="iso-8859-1"?>
<!-- Generator: Adobe Illustrator 19.0.0, SVG Export Plug-In . SVG Version: 6.00 Build 0)  -->
<svg version="1.1" id="Capa_1" xmlns="http://www.w3.org/2000/svg" xmlns:xlink="http://www.w3.org/1999/xlink" x="0px" y="0px"
	 viewBox="0 0 512.001 512.001" style="enable-background:new 0 0 512.001 512.001;" xml:space="preserve">
<g>
	<path style="fill:#735458;" d="M483.494,56.479l-27.972-27.972L493.599,0.77c1.599-1.164,3.807-0.992,5.205,0.406l12.02,12.02
		c1.398,1.398,1.571,3.607,0.406,5.205L483.494,56.479z"/>
	
		<rect x="273.046" y="-15.053" transform="matrix(-0.7071 -0.7071 0.7071 -0.7071 344.9111 581.1964)" style="fill:#735458;" width="39.559" height="468.436"/>
</g>
<rect x="290.823" y="-7.693" transform="matrix(-0.7071 -0.7071 0.7071 -0.7071 352.2766 598.9679)" style="fill:#5C4346;" width="18.732" height="468.436"/>
<path style="fill:#735458;" d="M91.871,507.16c0.358,0.95-2.962,2.976-5.476,4.349c-1.566,0.855-3.504,0.575-4.765-0.686
	l-30.374-30.374L1.179,430.372c-1.262-1.262-1.542-3.202-0.685-4.767c1.37-2.504,3.381-5.816,4.291-5.531
	c43.74,13.759,120.532-61.367,120.532-61.367l27.974,27.973C153.291,386.68,74.181,459.624,91.871,507.16z"/>
<path style="fill:#5C4346;" d="M91.871,507.16c0.358,0.95-2.962,2.976-5.476,4.349c-1.566,0.855-3.504,0.575-4.765-0.686
	l-30.374-30.374c35.391-65.236,87.862-106.286,88.783-107.02l13.252,13.252C153.291,386.68,74.181,459.624,91.871,507.16z"/>
<g>
	<circle style="fill:#FFDEA9;" cx="379.601" cy="132.38" r="26.366"/>
	<circle style="fill:#FFDEA9;" cx="309.611" cy="202.38" r="26.366"/>
	<circle style="fill:#FFDEA9;" cx="239.611" cy="272.38" r="26.366"/>
	<path style="fill:#FFDEA9;" d="M464.024,83.323l-35.346-35.345c-1.569-1.569-1.569-4.113,0-5.682l27.886-27.886
		c1.568-1.568,4.111-1.568,5.679,0l35.346,35.345c1.569,1.569,1.569,4.113,0,5.682l-27.886,27.886
		C468.135,84.892,465.593,84.892,464.024,83.323z"/>
</g>
<path style="fill:#FFBF7B;" d="M464.024,83.323l-18.099-18.098l33.567-33.567l18.097,18.097c1.569,1.569,1.569,4.113,0,5.682
	l-27.886,27.886C468.135,84.892,465.593,84.892,464.024,83.323z"/>
<path style="fill:#FFDEA9;" d="M148.434,402.641l-39.075-39.075c-1.569-1.569-1.569-4.113,0-5.682l22.292-22.292
	c1.568-1.568,4.111-1.568,5.679,0l39.075,39.075c1.569,1.569,1.569,4.113,0,5.682l-22.292,22.292
	C152.544,404.209,150.002,404.209,148.434,402.641z"/>
<path style="fill:#FFBF7B;" d="M148.434,402.641l-18.874-18.874l27.972-27.972l18.872,18.872c1.569,1.569,1.569,4.113,0,5.682
	l-22.292,22.292C152.544,404.209,150.002,404.209,148.434,402.641z"/>
<g>
</g>
<g>
</g>
<g>
</g>
<g>
</g>
<g>
</g>
<g>
</g>
<g>
</g>
<g>
</g>
<g>
</g>
<g>
</g>
<g>
</g>
<g>
</g>
<g>
</g>
<g>
</g>
<g>
</g>
</svg>
