<?xml version="1.0" encoding="iso-8859-1"?>
<!-- Generator: Adobe Illustrator 19.0.0, SVG Export Plug-In . SVG Version: 6.00 Build 0)  -->
<svg version="1.1" id="Capa_1" xmlns="http://www.w3.org/2000/svg" xmlns:xlink="http://www.w3.org/1999/xlink" x="0px" y="0px"
	 viewBox="0 0 512 512" style="enable-background:new 0 0 512 512;" xml:space="preserve">
<path style="fill:#FFDEA9;" d="M400.21,51.667H112.518V16.461C112.518,7.37,119.888,0,128.979,0h254.77
	c9.091,0,16.461,7.37,16.461,16.461L400.21,51.667L400.21,51.667z"/>
<path style="fill:#FFBF7B;" d="M383.771,0h-30.824c9.079,0,16.44,7.38,16.44,16.483v35.184h30.824V16.483
	C400.21,7.38,392.85,0,383.771,0z"/>
<path style="fill:#F3B573;" d="M171.433,485.743c-27.844-94.603-96.889-223.82-57.157-427.022c50.029,0,234.147,0,284.175,0
	c39.732,203.202-29.313,332.419-57.157,427.022C313.166,485.743,199.563,485.743,171.433,485.743z"/>
<path style="fill:#F5A257;" d="M398.452,58.72c-7.704,0-18.596,0-31.68,0c39.732,203.202-29.313,332.419-57.157,427.022
	c13.79,0,25.085,0,31.68,0C369.139,391.139,438.184,261.923,398.452,58.72z"/>
<g>
	<path style="fill:#735458;" d="M259.511,273.998h-6.293c-17.053,0-30.876-13.824-30.876-30.876v-36.486
		c0-17.053,13.824-30.876,30.876-30.876h6.293c17.053,0,30.876,13.824,30.876,30.876v36.486
		C290.387,260.174,276.563,273.998,259.511,273.998z"/>
	<path style="fill:#735458;" d="M100.061,269.299L100.061,269.299c-13.22,0-23.938-10.717-23.938-23.938v-50.913
		c0-8.066,6.539-14.606,14.606-14.606h15.141c8.067,0,14.606,6.539,14.606,14.606v54.436
		C120.475,260.159,111.335,269.299,100.061,269.299z"/>
	<path style="fill:#735458;" d="M411.939,269.299L411.939,269.299c13.22,0,23.938-10.717,23.938-23.938v-50.913
		c0-8.066-6.539-14.606-14.606-14.606H406.13c-8.067,0-14.606,6.539-14.606,14.606v54.436
		C391.525,260.159,400.665,269.299,411.939,269.299z"/>
	<path style="fill:#735458;" d="M404.784,62.326h-296.84c-2.298,0-4.16-1.862-4.16-4.16V39.701c0-2.298,1.863-4.16,4.16-4.16
		h296.839c2.298,0,4.16,1.862,4.16,4.16v18.465C408.944,60.463,407.081,62.326,404.784,62.326z"/>
	<path style="fill:#735458;" d="M344.837,512H167.891c-2.209,0-4-1.791-4-4v-22.905c0-2.209,1.791-4,4-4h176.945
		c2.209,0,4,1.791,4,4V508C348.837,510.209,347.046,512,344.837,512z"/>
</g>
<path style="fill:#5C4346;" d="M344.837,512h-26.824v-30.905h26.824c2.209,0,4,1.791,4,4V508
	C348.837,510.209,347.046,512,344.837,512z"/>
<path style="fill:#FFDEA9;" d="M82.331,228.064c0,0-13.331,0-13.331-29.718l19.558-146.55c1.114-9.276,8.949-16.255,18.25-16.255
	h0.344c5.329,0,9.459,4.68,8.821,9.994L95.662,214.672C95.662,222.068,89.694,228.064,82.331,228.064z"/>
<path style="fill:#FFBF7B;" d="M429.669,228.064c0,0,13.331,0,13.331-29.718l-19.558-146.55c-1.114-9.276-8.949-16.255-18.25-16.255
	h-0.344c-5.329,0-9.459,4.68-8.821,9.994l20.309,169.136C416.338,222.068,422.306,228.064,429.669,228.064z"/>
<path style="fill:#FFDEA9;" d="M256.364,228.372L256.364,228.372c-7.377,0-13.357-5.98-13.357-13.357V32.5h26.714v182.515
	C269.721,222.392,263.741,228.372,256.364,228.372z"/>
<g>
</g>
<g>
</g>
<g>
</g>
<g>
</g>
<g>
</g>
<g>
</g>
<g>
</g>
<g>
</g>
<g>
</g>
<g>
</g>
<g>
</g>
<g>
</g>
<g>
</g>
<g>
</g>
<g>
</g>
</svg>
