<?xml version="1.0" encoding="iso-8859-1"?>
<!-- Generator: Adobe Illustrator 19.0.0, SVG Export Plug-In . SVG Version: 6.00 Build 0)  -->
<svg version="1.1" id="Capa_1" xmlns="http://www.w3.org/2000/svg" xmlns:xlink="http://www.w3.org/1999/xlink" x="0px" y="0px"
	 viewBox="0 0 512 512" style="enable-background:new 0 0 512 512;" xml:space="preserve">
<path style="fill:#FF803C;" d="M139.911,237.64c-40.751,40.701-72.005,18.178-110.759,56.751
	C-16.039,339.37-6.793,417.925,43.784,468.264c52.284,52.039,130.479,58.57,174.667,14.589
	c38.638-38.457,16.203-69.146,57.208-110.041c7.348-7.328,54.912-24.028,79.847-56.991c60.491-79.964-144.48,38.09-56.838-99.987
	C198.803,116.092,155.828,221.742,139.911,237.64z"/>
<path style="fill:#F76328;" d="M330.626,286.404c7.748,2.851,8.118,10.721-6.025,29.418c-24.936,32.963-62.031,31.89-69.379,39.218
	c-41.006,40.896-29.039,89.357-67.677,127.814c-16.032,15.957-36.542,25.258-58.665,28.156c33.457,4.191,66.25-4.945,89.57-28.156
	c38.638-38.457,16.203-69.146,57.208-110.041c7.348-7.328,54.912-24.028,79.847-56.991
	C381.528,281.424,358.426,283.668,330.626,286.404z"/>
<path style="fill:#595959;" d="M236.353,342.501l-66.925-66.611c-1.571-1.564-1.571-4.107,0-5.67l21.553-21.452
	c1.561-1.553,4.083-1.553,5.644,0l66.925,66.611c1.571,1.564,1.571,4.107,0,5.67l-21.553,21.452
	C240.436,344.054,237.914,344.054,236.353,342.501z"/>
<path style="fill:#464646;" d="M236.393,342.571l-19.129-18.833l27.178-27.14l19.08,18.785c1.584,1.559,1.593,4.11,0.02,5.681
	l-21.517,21.487C240.472,344.103,237.958,344.112,236.393,342.571z"/>
<path style="fill:#595959;" d="M179.486,399.078l-66.925-66.611c-1.571-1.564-1.571-4.107,0-5.67l21.553-21.452
	c1.561-1.553,4.083-1.553,5.644,0l66.925,66.611c1.571,1.564,1.571,4.107,0,5.67l-21.553,21.452
	C183.569,400.631,181.046,400.631,179.486,399.078z"/>
<path style="fill:#464646;" d="M179.526,399.149l-18.971-18.675l27.178-27.14l18.922,18.627c1.584,1.559,1.593,4.111,0.02,5.681
	l-21.517,21.487C183.605,400.681,181.091,400.69,179.526,399.149z"/>
<circle style="fill:#FFDEA9;" cx="155.34" cy="466.611" r="17.512"/>
<g>
	<path style="fill:#735458;" d="M504.456,78.652c-1.918,0-3.836-0.731-5.3-2.193l-63.881-63.641
		c-2.931-2.927-2.934-7.676-0.007-10.606c2.928-2.931,7.677-2.934,10.606-0.007l63.881,63.641c2.931,2.927,2.934,7.676,0.007,10.606
		C508.298,77.919,506.377,78.652,504.456,78.652z"/>
	<path style="fill:#735458;" d="M487.404,105.579c-1.918,0-3.836-0.731-5.3-2.193l-73.34-73.25
		c-2.931-2.927-2.934-7.676-0.007-10.607c2.928-2.93,7.677-2.934,10.606-0.006l73.34,73.25c2.931,2.927,2.934,7.676,0.007,10.607
		C491.246,104.845,489.325,105.579,487.404,105.579z"/>
	<path style="fill:#735458;" d="M465.402,127.554c-1.918,0-3.836-0.731-5.3-2.193l-73.34-73.25
		c-2.931-2.927-2.934-7.676-0.007-10.607c2.928-2.931,7.677-2.933,10.606-0.006l73.34,73.25c2.931,2.927,2.934,7.676,0.007,10.607
		C469.244,126.82,467.323,127.554,465.402,127.554z"/>
</g>
<path style="fill:#E8E6E1;" d="M168.043,435.194c-4.486,0-9.003-0.525-13.472-1.588l-36.462-8.674
	c-4.03-0.958-6.52-5.002-5.561-9.032c0.958-4.028,5-6.518,9.031-5.561l36.462,8.674c10.979,2.612,22.346,0.842,32.006-4.98
	l39.109-23.571c3.547-2.137,8.156-0.996,10.295,2.552c2.138,3.548,0.995,8.157-2.553,10.295L197.79,426.88
	C188.678,432.373,178.44,435.194,168.043,435.194z"/>
<path style="fill:#595959;" d="M118.7,435.538L76.2,393.09c-1.564-1.563-1.564-4.098,0-5.66l13.408-13.392
	c1.562-1.56,4.092-1.56,5.653,0l42.5,42.448c1.564,1.563,1.564,4.098,0,5.66l-13.408,13.392
	C122.792,437.097,120.262,437.097,118.7,435.538z"/>
<polygon style="fill:#FFDEA9;" points="444.61,99.291 399.43,144.251 388.8,154.841 367.72,175.821 357.09,186.411 336.01,207.391 
	325.37,217.971 304.29,238.951 293.66,249.541 245.53,297.441 214.67,266.731 262.87,218.751 273.51,208.171 294.59,187.191 
	305.22,176.601 326.3,155.621 336.94,145.041 358.02,124.061 368.65,113.471 413.76,68.581 "/>
<path style="fill:#595959;" d="M510.188,37.563l-46.194,56.186L438.04,114.14c-1.591,1.25-3.866,1.115-5.298-0.315l-19.31-19.283
	l-15.14-15.104c-1.436-1.432-1.572-3.713-0.318-5.306l20.382-25.886l55.99-46.41c2.369-2.071,5.398-2.442,6.995-0.845l7.984,7.974
	l21.685,21.644C512.599,32.196,512.238,35.204,510.188,37.563z"/>
<path style="fill:#464646;" d="M510.188,37.563l-46.194,56.186L438.04,114.14c-1.591,1.25-3.866,1.115-5.298-0.315l-19.31-19.283
	l0.01-0.01l28.752-22.592l46.183-56.186c1.999-2.287,2.369-5.172,0.948-6.789l21.685,21.644
	C512.599,32.196,512.238,35.204,510.188,37.563z"/>
<g>
	<polygon style="fill:#F4AB69;" points="399.43,144.251 388.8,154.841 358.02,124.061 368.65,113.471 	"/>
	<polygon style="fill:#F4AB69;" points="367.72,175.821 357.09,186.411 326.3,155.621 336.94,145.041 	"/>
	<polygon style="fill:#F4AB69;" points="336.01,207.391 325.37,217.971 294.59,187.191 305.22,176.601 	"/>
	<polygon style="fill:#F4AB69;" points="304.29,238.951 293.66,249.541 262.87,218.751 273.51,208.171 	"/>
</g>
<g>
</g>
<g>
</g>
<g>
</g>
<g>
</g>
<g>
</g>
<g>
</g>
<g>
</g>
<g>
</g>
<g>
</g>
<g>
</g>
<g>
</g>
<g>
</g>
<g>
</g>
<g>
</g>
<g>
</g>
</svg>
