<?xml version="1.0" encoding="iso-8859-1"?>
<!-- Generator: Adobe Illustrator 19.0.0, SVG Export Plug-In . SVG Version: 6.00 Build 0)  -->
<svg version="1.1" id="Capa_1" xmlns="http://www.w3.org/2000/svg" xmlns:xlink="http://www.w3.org/1999/xlink" x="0px" y="0px"
	 viewBox="0 0 512 512" style="enable-background:new 0 0 512 512;" xml:space="preserve">
<g>
	<g>
		<path d="M199.425,412.541c-3.9-3.91-10.241-3.91-14.141,0c-3.91,3.9-3.91,10.231,0,14.141c3.9,3.9,10.241,3.9,14.141,0
			C203.336,422.772,203.336,416.441,199.425,412.541z"/>
	</g>
</g>
<g>
	<g>
		<path d="M156.992,426.682c-3.9-3.91-10.231-3.91-14.141,0c-3.9,3.9-3.9,10.241,0,14.141c3.91,3.91,10.241,3.91,14.141,0
			C160.902,436.923,160.902,430.582,156.992,426.682z"/>
	</g>
</g>
<g>
	<g>
		<path d="M509.071,45.811L494.93,31.67c-2.226-2.226-5.37-3.272-8.485-2.828l-19.804,2.828l-1.416-9.904
			c-0.781-5.467-5.847-9.264-11.315-8.485c-5.467,0.781-9.267,5.847-8.485,11.315l1.415,9.902l-19.804,2.828l-1.414-9.9
			c-0.782-5.468-5.851-9.268-11.314-8.486c-5.468,0.781-9.268,5.847-8.486,11.314l1.414,9.9l-19.8,2.828
			c-3.751,0.533-6.878,3.142-8.076,6.737l-13.398,40.203l-88.926,89.189c-19.256-17.919-41.38-25.231-64.526-21.181
			c-40.077,7.01-52.49,36.572-63.442,62.653c-6.908,16.45-25.347,20.75-32.949,21.834C82.419,247.206,56.17,258.79,38.1,276.85
			c-55.155,55.156-47.98,124.385,5.75,178.117c53.257,53.256,122.536,61.331,178.118,5.748
			c25.167-25.178,30.482-50.23,34.429-78.013c1.085-7.608,5.384-26.047,21.836-32.956c21.435-9.004,33.722-17.282,38.009-20.424
			c17.44-12.773,18.209-35.259,6.063-47.422c-6.651-6.612-15.234-8.245-24.69-7.874c-4.372,0.172-5.842,0.229-10.694-4.618
			c-2.054-2.054-3.285-10.059-0.078-15.136l122.65-123.022l98.319-70.23c2.392-1.709,3.911-4.384,4.153-7.314
			C512.208,50.779,511.15,47.892,509.071,45.811z M298.4,294.012c3.066-0.119,7.505-0.212,9.778,2.046
			c3.565,3.57,3.63,11.719-3.755,17.128c-2.899,2.124-13.916,9.709-33.935,18.117c-18.228,7.655-30.58,25.358-33.892,48.578
			c-3.557,25.035-7.935,45.843-28.773,66.69c-47.573,47.573-104.285,39.794-149.829-5.75
			c-18.249-18.248-72.595-82.986-5.752-149.827c15.146-15.138,36.961-24.551,66.697-28.775c23.214-3.31,40.918-15.663,48.572-33.892
			c10.69-25.458,19.134-45.567,48.449-50.695c16.699-2.924,32.459,2.34,46.953,15.646l-63.5,63.69
			c-3.896,3.907-3.891,10.231,0.01,14.133l28.292,28.292c3.91,3.909,10.251,3.903,14.154-0.011l25.122-25.198
			c1.322,3.59,3.245,6.826,5.79,9.37C282.978,293.74,290.72,294.324,298.4,294.012z M234.778,278.168l-14.149-14.149l154.092-154.55
			l14.147,14.141L234.778,278.168z M404.081,110.537l-17.929-17.922l10.232-30.704c4.34-0.621,76.363-10.908,87.939-12.561
			l2.258,2.257L404.081,110.537z"/>
	</g>
</g>
<g>
	<g>
		<path d="M199.425,327.673l-28.282-28.282c-3.906-3.903-10.238-3.904-14.143,0c-3.905,3.905-3.906,10.238,0,14.144l28.282,28.282
			c1.953,1.952,4.512,2.929,7.072,2.929s5.119-0.977,7.072-2.929C203.331,337.912,203.332,331.579,199.425,327.673z"/>
	</g>
</g>
<g>
	<g>
		<path d="M171.144,355.965l-28.292-28.292c-3.905-3.904-10.238-3.904-14.144,0c-3.905,3.905-3.905,10.238,0,14.144L157,370.109
			c3.906,3.905,10.238,3.905,14.144,0C175.049,366.204,175.049,359.872,171.144,355.965z"/>
	</g>
</g>
<g>
	<g>
		<path d="M128.711,398.399l-42.433-42.433c-3.905-3.904-10.238-3.904-14.144,0c-3.905,3.905-3.905,10.238,0,14.144l42.433,42.433
			c3.906,3.905,10.238,3.905,14.144,0C132.616,408.637,132.616,402.305,128.711,398.399z"/>
	</g>
</g>
<g>
</g>
<g>
</g>
<g>
</g>
<g>
</g>
<g>
</g>
<g>
</g>
<g>
</g>
<g>
</g>
<g>
</g>
<g>
</g>
<g>
</g>
<g>
</g>
<g>
</g>
<g>
</g>
<g>
</g>
</svg>
