<?xml version="1.0" encoding="iso-8859-1"?>
<!-- Generator: Adobe Illustrator 19.0.0, SVG Export Plug-In . SVG Version: 6.00 Build 0)  -->
<svg version="1.1" id="Capa_1" xmlns="http://www.w3.org/2000/svg" xmlns:xlink="http://www.w3.org/1999/xlink" x="0px" y="0px"
	 viewBox="0 0 512 512" style="enable-background:new 0 0 512 512;" xml:space="preserve">
<path style="fill:#A66856;" d="M239.193,480.53c-47.939,47.923-133.329,40.25-190.738-17.14
	C-7.08,407.874-17.69,321.699,31.337,272.688c42.045-42.03,76.228-17.212,120.515-61.485c20.623-20.616,18.551-31.305,35.085-47.834
	c31.305-31.295,83.599-18.966,132.105,29.524s56.784,104.797,29.522,132.049c-16.043,16.037-26.922,14.604-47.657,35.332
	C256.376,404.791,281.112,438.625,239.193,480.53z"/>
<path style="fill:#8F5040;" d="M319.043,192.893c-30.215-30.205-61.899-46.375-89.065-46.714
	c19.307,7.259,39.653,20.995,59.373,40.708c48.506,48.49,56.784,104.797,29.522,132.049c-16.043,16.037-26.922,14.605-47.657,35.332
	c-44.532,44.517-19.796,78.351-61.715,120.255c-24.115,24.107-57.706,34.139-92.446,30.859
	c44.582,13.853,91.172,6.102,122.137-24.853c41.918-41.904,17.183-75.739,61.715-120.255c20.735-20.728,31.614-19.295,47.657-35.332
	C375.826,297.69,367.549,241.383,319.043,192.893z"/>
<path style="fill:#FFDEA9;" d="M150.002,432.421l-70.566-70.542c-1.563-1.562-1.563-4.096,0-5.658L99.764,335.9
	c1.562-1.561,4.094-1.561,5.656,0l70.566,70.542c1.563,1.562,1.563,4.096,0,5.658l-20.328,20.321
	C154.096,433.983,151.564,433.983,150.002,432.421z"/>
<path style="fill:#FFBF7B;" d="M150.005,432.427l-18.726-18.703l25.982-25.98l18.722,18.7c1.564,1.562,1.564,4.096,0.002,5.659
	l-20.325,20.323C154.098,433.986,151.567,433.987,150.005,432.427z"/>
<g>
	<path style="fill:#735458;" d="M504.5,92.929c-1.919,0-3.838-0.732-5.302-2.196l-77.957-77.93c-2.93-2.928-2.93-7.677-0.002-10.606
		c2.929-2.929,7.678-2.93,10.606-0.002l77.957,77.93c2.93,2.928,2.93,7.677,0.002,10.606C508.34,92.196,506.419,92.929,504.5,92.929
		z"/>
	<path style="fill:#735458;" d="M485.448,111.974c-1.919,0-3.838-0.732-5.302-2.196l-77.957-77.93
		c-2.93-2.928-2.93-7.677-0.002-10.606c2.929-2.929,7.678-2.93,10.606-0.002l77.957,77.93c2.93,2.928,2.93,7.677,0.002,10.606
		C489.288,111.241,487.368,111.974,485.448,111.974z"/>
	<path style="fill:#735458;" d="M466.397,131.019c-1.919,0-3.838-0.732-5.302-2.196l-77.957-77.93
		c-2.93-2.928-2.93-7.677-0.002-10.606c2.929-2.93,7.678-2.93,10.606-0.002l77.957,77.93c2.93,2.928,2.93,7.677,0.002,10.606
		C470.237,130.286,468.316,131.019,466.397,131.019z"/>
	<polygon style="fill:#735458;" points="439.87,106.743 241.348,305.194 219.777,283.624 206.703,270.559 405.225,72.098 	"/>
</g>
<path style="fill:#A66856;" d="M495.76,56.101l-52.287,63.606c-1.837,2.243-5.197,2.406-7.248,0.355l-21.408-21.408h-0.01
	l-22.931-22.921c-2.04-2.04-1.888-5.39,0.325-7.238l63.301-52.602c1.949-1.614,4.801-1.482,6.598,0.305l11.968,11.968l21.368,21.358
	C497.222,51.31,497.364,54.152,495.76,56.101z"/>
<path style="fill:#8F5040;" d="M495.76,56.101l-52.287,63.606c-1.837,2.243-5.197,2.406-7.248,0.355l-21.408-21.408
	c2.05,2.051,5.41,1.888,7.248-0.345l52.287-63.616c1.594-1.929,1.462-4.751-0.284-6.527l21.368,21.358
	C497.222,51.31,497.364,54.152,495.76,56.101z"/>
<circle style="fill:#5C4346;" cx="196.96" cy="314.939" r="50.755"/>
<g>
	
		<rect x="349.625" y="130.343" transform="matrix(-0.7071 -0.7071 0.7071 -0.7071 541.1935 499.8559)" style="fill:#FFBF7B;" width="48.991" height="15"/>
	
		<rect x="318.984" y="160.973" transform="matrix(-0.7071 -0.7071 0.7071 -0.7071 467.2272 530.478)" style="fill:#FFBF7B;" width="48.991" height="15"/>
	
		<rect x="288.35" y="191.62" transform="matrix(-0.7071 -0.7071 0.7071 -0.7071 393.2609 561.1343)" style="fill:#FFBF7B;" width="48.991" height="15"/>
	
		<rect x="257.716" y="222.243" transform="matrix(-0.7071 -0.7071 0.7071 -0.7071 319.3113 591.7485)" style="fill:#FFBF7B;" width="48.99" height="15"/>
</g>
<g>
</g>
<g>
</g>
<g>
</g>
<g>
</g>
<g>
</g>
<g>
</g>
<g>
</g>
<g>
</g>
<g>
</g>
<g>
</g>
<g>
</g>
<g>
</g>
<g>
</g>
<g>
</g>
<g>
</g>
</svg>
