<?xml version="1.0" encoding="iso-8859-1"?>
<!-- Generator: Adobe Illustrator 19.0.0, SVG Export Plug-In . SVG Version: 6.00 Build 0)  -->
<svg version="1.1" id="Capa_1" xmlns="http://www.w3.org/2000/svg" xmlns:xlink="http://www.w3.org/1999/xlink" x="0px" y="0px"
	 viewBox="0 0 512.001 512.001" style="enable-background:new 0 0 512.001 512.001;" xml:space="preserve">
<polygon style="fill:#FFBC38;" points="160.476,504.333 283.959,509.309 283.959,478.475 160.476,485.015 "/>
<g>
	<path style="fill:#FFA440;" d="M133.46,511.883l28.225-7.501v-19.431l-28.101-8.648c-2-0.648-4.016,0.807-4.016,2.912v29.719
		C129.568,510.984,131.489,512.434,133.46,511.883z"/>
	<path style="fill:#FFA440;" d="M370.184,389.62H189.035c-4.143,0-7.5-3.358-7.5-7.5s3.357-7.5,7.5-7.5h181.149
		c4.143,0,7.5,3.358,7.5,7.5S374.327,389.62,370.184,389.62z"/>
	<path style="fill:#FFA440;" d="M370.184,410.452H189.035c-4.143,0-7.5-3.358-7.5-7.5s3.357-7.5,7.5-7.5h181.149
		c4.143,0,7.5,3.358,7.5,7.5S374.327,410.452,370.184,410.452z"/>
</g>
<path style="fill:#FFCE55;" d="M387.13,352.126h0.021c-0.371-2.678-113.958-266.837-42.997-347.469
	c2.121-2.421-2.749-5.645-5.704-4.368c-31.239,13.464-161.969,70.073-218.969,99.423c-2.687,1.38-3.624,6.748-0.607,6.933
	c70.477,4.316,145.567,90.244,197.759,176.861c-12.345-3.492-30.786-4.862-37.025-4.873
	c-63.723-0.052-115.389,51.664-115.389,115.39c0,64.211,52.428,116.163,116.8,115.39c61.808-0.742,112.455-50.757,113.948-112.547
	C395.346,381.054,392.525,365.941,387.13,352.126z M276.868,478.468c-45.777-1.453-82.38-39.837-81.742-85.639
	c0.649-46.018,38.302-82.538,84.48-83.28c36.387-0.587,57.185,16.328,64.67,23.952c4.263,8.447,8.237,16.74,11.892,24.796
	c-0.01,0.01-0.01,0.031-0.021,0.041c5.076,10.848,7.938,22.932,7.938,35.685C364.087,441.515,324.704,479.992,276.868,478.468z"/>
<path style="fill:#FFBC38;" d="M387.125,352.127h0.021c-0.366-2.683-113.953-266.84-42.996-347.472
	c2.125-2.415-2.743-5.639-5.697-4.366c-6.724,2.897-18.065,7.796-32.278,13.988c-55.665,90.086,49.73,335.266,50.082,337.85h-0.021
	c5.404,13.812,8.219,28.929,7.837,44.746c-1.378,57.049-44.657,104.054-99.93,111.515c5.513,0.738,11.148,1.095,16.879,1.026
	c61.802-0.741,112.447-50.752,113.94-112.541C395.344,381.056,392.529,365.938,387.125,352.127z"/>
<path style="fill:#FFA440;" d="M354.238,208.054l-77.467,38.261c-5.648,2.789-12.487,0.472-15.277-5.175l-3.587-7.263
	c-2.789-5.647-0.472-12.485,5.175-15.274l77.467-38.261c5.648-2.789,12.487-0.472,15.277,5.175l3.587,7.263
	C362.202,198.427,359.885,205.265,354.238,208.054z"/>
<path style="fill:#FFCE55;" d="M264.753,430.092h-30.908v-69.046c0-8.526,6.912-15.438,15.438-15.438h0.033
	c8.526,0,15.438,6.912,15.438,15.438v69.046H264.753z"/>
<path style="fill:#FFBC38;" d="M295.661,430.092h-30.908v-69.046c0-8.526,6.912-15.438,15.438-15.438h0.033
	c8.526,0,15.438,6.912,15.438,15.438L295.661,430.092L295.661,430.092z"/>
<path style="fill:#FFCE55;" d="M326.569,430.092h-30.908v-69.046c0-8.526,6.912-15.438,15.438-15.438h0.033
	c8.526,0,15.438,6.912,15.438,15.438L326.569,430.092L326.569,430.092z"/>
<g>
	<circle style="fill:#FFA440;" cx="249.299" cy="430.09" r="15.454"/>
	<circle style="fill:#FFA440;" cx="280.209" cy="430.09" r="15.454"/>
	<circle style="fill:#FFA440;" cx="311.119" cy="430.09" r="15.454"/>
</g>
<g>
</g>
<g>
</g>
<g>
</g>
<g>
</g>
<g>
</g>
<g>
</g>
<g>
</g>
<g>
</g>
<g>
</g>
<g>
</g>
<g>
</g>
<g>
</g>
<g>
</g>
<g>
</g>
<g>
</g>
</svg>
