<?xml version="1.0" encoding="iso-8859-1"?>
<!-- Generator: Adobe Illustrator 19.0.0, SVG Export Plug-In . SVG Version: 6.00 Build 0)  -->
<svg version="1.1" id="Capa_1" xmlns="http://www.w3.org/2000/svg" xmlns:xlink="http://www.w3.org/1999/xlink" x="0px" y="0px"
	 viewBox="0 0 512 512" style="enable-background:new 0 0 512 512;" xml:space="preserve">
<path style="fill:#F3B573;" d="M256.831,461.264c-63.043,63.043-160.286,68.014-217.197,11.103S-12.307,318.213,50.737,255.17
	s244.275-38.181,244.275-38.181S319.874,398.221,256.831,461.264z"/>
<path style="fill:#F5A257;" d="M295.011,216.989c0,0-11.166-1.531-28.914-2.87c3.817,34.414,16.442,181.497-39.056,236.994
	c-42.245,42.245-99.845,58.409-150.377,47.356c56.237,26.701,129.322,13.64,180.167-37.205
	C319.874,398.221,295.011,216.989,295.011,216.989z"/>
<path style="fill:#FF803C;" d="M169.708,423.25L88.75,342.292c-1.562-1.562-1.562-4.095,0-5.657l13.005-13.005
	c1.562-1.562,4.095-1.562,5.657,0l80.958,80.958c1.562,1.562,1.562,4.095,0,5.657l-13.005,13.005
	C173.803,424.813,171.27,424.813,169.708,423.25z"/>
<path style="fill:#F76328;" d="M169.708,423.25l-18.406-18.406l18.662-18.662l18.406,18.406c1.562,1.562,1.562,4.095,0,5.657
	l-13.005,13.005C173.803,424.813,171.27,424.813,169.708,423.25z"/>
<g>
	<path style="fill:#735458;" d="M504.5,81.309c-1.919,0-3.839-0.732-5.304-2.197l-66.309-66.309c-2.929-2.929-2.929-7.678,0-10.606
		c2.93-2.929,7.678-2.929,10.607,0l66.309,66.309c2.929,2.929,2.929,7.678,0,10.606C508.339,80.576,506.419,81.309,504.5,81.309z"/>
	<path style="fill:#735458;" d="M486.766,99.043c-1.92,0-3.839-0.732-5.304-2.197l-66.309-66.309c-2.929-2.929-2.929-7.678,0-10.606
		c2.931-2.93,7.679-2.929,10.607,0l66.309,66.309c2.929,2.929,2.929,7.678,0,10.606C490.604,98.311,488.685,99.043,486.766,99.043z"
		/>
	<path style="fill:#735458;" d="M469.031,116.778c-1.919,0-3.839-0.732-5.304-2.197l-66.309-66.309
		c-2.929-2.929-2.929-7.678,0-10.606c2.93-2.929,7.678-2.929,10.607,0l66.309,66.309c2.929,2.929,2.929,7.678,0,10.606
		C472.87,116.045,470.95,116.778,469.031,116.778z"/>
	
		<rect x="309.581" y="32.236" transform="matrix(-0.7071 -0.7071 0.7071 -0.7071 440.4261 541.6403)" style="fill:#735458;" width="45.62" height="294.737"/>
</g>
<path style="fill:#A66856;" d="M502.226,50.946l-41.467,53.18c-1.969,2.375-28.879,8.243-28.879,8.243L399.631,80.12
	c0,0,5.857-26.89,8.222-28.859l52.825-41.822c2.071-1.726,5.075-1.644,6.923,0.203l12.749,12.76l21.652,21.652
	C503.84,45.891,503.942,48.875,502.226,50.946z"/>
<path style="fill:#8F5040;" d="M502.226,50.946l-41.467,53.18c-1.969,2.375-28.879,8.243-28.879,8.243l-21.652-21.652
	c0,0,26.91-5.867,28.879-8.243l41.466-53.18c1.716-2.071,1.614-5.055-0.223-6.893l21.652,21.652
	C503.84,45.891,503.942,48.875,502.226,50.946z"/>
<ellipse transform="matrix(0.7071 -0.7071 0.7071 0.7071 -150.9037 237.416)" style="fill:#5C4346;" cx="211.135" cy="300.865" rx="32.962" ry="50.881"/>
<path style="fill:#735458;" d="M46.672,491.93L20.07,465.328c-1.562-1.562-1.562-4.095,0-5.657l32.864-32.864
	c1.562-1.562,4.095-1.562,5.657,0l26.601,26.601c1.562,1.562,1.562,4.095,0,5.657L52.329,491.93
	C50.767,493.492,48.234,493.492,46.672,491.93z"/>
<g>
	
		<rect x="368.252" y="113.435" transform="matrix(-0.7071 -0.7071 0.7071 -0.7071 582.0699 482.9711)" style="fill:#5C4346;" width="45.62" height="15"/>
	
		<rect x="339.696" y="141.985" transform="matrix(-0.7071 -0.7071 0.7071 -0.7071 513.1349 511.5173)" style="fill:#5C4346;" width="45.62" height="15"/>
	
		<rect x="311.158" y="170.528" transform="matrix(-0.7071 -0.7071 0.7071 -0.7071 444.234 540.0635)" style="fill:#5C4346;" width="45.62" height="15"/>
	
		<rect x="282.61" y="199.085" transform="matrix(-0.7071 -0.7071 0.7071 -0.7071 375.3061 568.6267)" style="fill:#5C4346;" width="45.62" height="15"/>
</g>
<g>
</g>
<g>
</g>
<g>
</g>
<g>
</g>
<g>
</g>
<g>
</g>
<g>
</g>
<g>
</g>
<g>
</g>
<g>
</g>
<g>
</g>
<g>
</g>
<g>
</g>
<g>
</g>
<g>
</g>
</svg>
