<?xml version="1.0" encoding="iso-8859-1"?>
<!-- Generator: Adobe Illustrator 19.0.0, SVG Export Plug-In . SVG Version: 6.00 Build 0)  -->
<svg version="1.1" id="Capa_1" xmlns="http://www.w3.org/2000/svg" xmlns:xlink="http://www.w3.org/1999/xlink" x="0px" y="0px"
	 viewBox="0 0 512 512" style="enable-background:new 0 0 512 512;" xml:space="preserve">
<path style="fill:#FFCE55;" d="M69.143,118.087c-14.375,49.119-9.559,97.719,9.578,132.009
	c12.768,22.879,17.382,50.894,12.443,78.783c-4.883,27.57-13.601,63.393-28.977,107.627c-1.268,3.651-2.581,7.356-3.937,11.113
	c-8.322,28.434,0.309,42.688,14.849,46.96s29.487-3.055,37.808-31.489c0.884-3.897,1.776-7.724,2.676-11.484
	c10.9-45.548,22.871-80.416,33.621-106.262c10.874-26.145,29.857-47.227,52.935-59.574c34.588-18.505,64.837-56.802,79.212-105.921
	c23.551-80.469-4.418-159.528-62.462-176.582S92.693,37.618,69.143,118.087z"/>
<path style="fill:#FFBC38;" d="M216.888,3.267c-12.616-3.707-25.614-4.176-38.475-1.819c2.53,0.484,5.049,1.083,7.552,1.819
	c58.044,17.054,86.013,96.113,62.462,176.582c-14.375,49.119-44.624,87.416-79.212,105.921
	c-23.078,12.347-42.06,33.429-52.935,59.574c-10.75,25.846-22.721,60.714-33.621,106.262c-0.901,3.759-1.793,7.587-2.676,11.484
	c-3.934,13.443-9.351,22.163-15.504,27.175c2.509,1.95,5.42,3.374,8.619,4.314c14.539,4.272,29.486-3.055,37.808-31.489
	c0.884-3.897,1.775-7.724,2.676-11.484c10.9-45.549,22.871-80.416,33.621-106.262c10.874-26.145,29.857-47.227,52.935-59.574
	c34.588-18.505,64.837-56.802,79.212-105.921C302.901,99.38,274.932,20.321,216.888,3.267z"/>
<path style="fill:#595959;" d="M69.141,118.089c-2.884,9.856-4.999,19.68-6.37,29.38l206.105,60.556
	c4.074-8.905,7.59-18.318,10.474-28.174c3.064-10.469,5.256-20.925,6.608-31.221L80.407,88.236
	C75.996,97.633,72.205,107.62,69.141,118.089z"/>
<path style="fill:#FF803C;" d="M402.226,327.548c-36.124,36.195-80.997,55.266-120.206,54.885
	c-26.161-0.254-52.908,9.124-74.964,26.841c-21.804,17.515-48.997,42.359-80.362,77.091c-2.589,2.866-5.204,5.796-7.845,8.791
	c-20.911,20.952-37.535,20.2-48.248,9.465c-10.714-10.735-11.465-27.391,9.446-48.343c2.989-2.645,5.913-5.265,8.774-7.86
	c34.664-31.427,59.459-58.673,76.94-80.52c17.683-22.099,27.042-48.899,26.789-75.111c-0.38-39.285,18.654-84.246,54.778-120.441
	c59.18-59.296,141.832-72.619,184.604-29.764S461.406,268.252,402.226,327.548z"/>
<path style="fill:#F76328;" d="M431.931,142.582c-3.962-3.97-8.269-7.455-12.865-10.469c29.625,45.093,13.737,118.38-40.033,172.256
	c-36.124,36.195-80.997,55.266-120.206,54.885c-26.161-0.254-52.908,9.124-74.964,26.841
	c-21.804,17.515-48.997,42.359-80.362,77.091c-2.59,2.866-5.204,5.797-7.845,8.791c-12.424,12.448-23.334,17.234-32.39,16.818
	c0.299,6.172,3.001,11.484,7.334,15.826c10.714,10.735,27.337,11.487,48.248-9.465c2.64-2.995,5.255-5.925,7.845-8.791
	c31.365-34.732,58.558-59.576,80.362-77.091c22.056-17.717,48.803-27.095,74.964-26.841c39.208,0.381,84.082-18.69,120.206-54.885
	C461.406,268.251,474.703,185.438,431.931,142.582z"/>
<path style="fill:#FFDEA9;" d="M422.963,303.326c-6.112,8.386-13.039,16.514-20.739,24.22c-7.246,7.263-14.833,13.835-22.677,19.697
	l-23.151-23.2L227.673,195.065c5.844-7.85,12.4-15.453,19.657-22.715c7.689-7.716,15.802-14.659,24.171-20.789l128.3,128.567
	L422.963,303.326z"/>
<path style="fill:#FFBF7B;" d="M422.963,303.326c-6.112,8.386-13.039,16.514-20.739,24.22c-7.246,7.263-14.833,13.835-22.677,19.697
	l-23.151-23.2c7.813-5.862,15.4-12.424,22.636-19.677c7.71-7.726,14.647-15.854,20.77-24.24L422.963,303.326z"/>
<g>
</g>
<g>
</g>
<g>
</g>
<g>
</g>
<g>
</g>
<g>
</g>
<g>
</g>
<g>
</g>
<g>
</g>
<g>
</g>
<g>
</g>
<g>
</g>
<g>
</g>
<g>
</g>
<g>
</g>
</svg>
