<?xml version="1.0" encoding="iso-8859-1"?>
<!-- Generator: Adobe Illustrator 19.0.0, SVG Export Plug-In . SVG Version: 6.00 Build 0)  -->
<svg version="1.1" id="Capa_1" xmlns="http://www.w3.org/2000/svg" xmlns:xlink="http://www.w3.org/1999/xlink" x="0px" y="0px"
	 viewBox="0 0 512.001 512.001" style="enable-background:new 0 0 512.001 512.001;" xml:space="preserve">
<path style="fill:#FFCE55;" d="M86.02,250.851H55.115V100.484c0-2.275,1.845-4.12,4.12-4.12H81.9c2.275,0,4.12,1.845,4.12,4.12
	C86.02,100.484,86.02,250.851,86.02,250.851z"/>
<path style="fill:#FFBC38;" d="M116.926,250.851H86.02V66.884c0-2.275,1.845-4.12,4.12-4.12h22.666c2.275,0,4.12,1.845,4.12,4.12
	V250.851z"/>
<path style="fill:#FFCE55;" d="M147.831,250.851h-30.905V24.585c0-2.275,1.845-4.12,4.12-4.12h22.666c2.275,0,4.12,1.845,4.12,4.12
	v226.266H147.831z"/>
<path style="fill:#FFBC38;" d="M178.736,250.851h-30.905V64.336c0-2.275,1.845-4.12,4.12-4.12h22.666c2.275,0,4.12,1.845,4.12,4.12
	L178.736,250.851L178.736,250.851z"/>
<path style="fill:#FFCE55;" d="M209.642,250.851h-30.905V100.484c0-2.275,1.845-4.12,4.12-4.12h22.666c2.275,0,4.12,1.845,4.12,4.12
	L209.642,250.851L209.642,250.851z"/>
<path style="fill:#FFBC38;" d="M240.547,250.851h-30.905V64.336c0-2.275,1.845-4.12,4.12-4.12h22.666c2.275,0,4.12,1.845,4.12,4.12
	L240.547,250.851L240.547,250.851z"/>
<path style="fill:#FFCE55;" d="M271.453,250.851h-30.905V18.12c0-2.275,1.845-4.12,4.12-4.12h22.666c2.275,0,4.12,1.845,4.12,4.12
	L271.453,250.851L271.453,250.851z"/>
<path style="fill:#FFBC38;" d="M302.358,250.851h-30.905V64.336c0-2.275,1.845-4.12,4.12-4.12h22.666c2.275,0,4.12,1.845,4.12,4.12
	v186.515H302.358z"/>
<path style="fill:#FFCE55;" d="M333.264,250.851h-30.905V100.484c0-2.275,1.845-4.12,4.12-4.12h22.666c2.275,0,4.12,1.845,4.12,4.12
	v150.367H333.264z"/>
<path style="fill:#FFBC38;" d="M364.169,250.851h-30.905V64.336c0-2.275,1.845-4.12,4.12-4.12h22.666c2.275,0,4.12,1.845,4.12,4.12
	L364.169,250.851L364.169,250.851z"/>
<path style="fill:#FFCE55;" d="M395.074,250.851h-30.905V24.585c0-2.275,1.845-4.12,4.12-4.12h22.666c2.275,0,4.12,1.845,4.12,4.12
	v226.266H395.074z"/>
<path style="fill:#FFBC38;" d="M425.98,250.851h-30.905V66.884c0-2.275,1.845-4.12,4.12-4.12h22.666c2.275,0,4.12,1.845,4.12,4.12
	v183.967H425.98z"/>
<path style="fill:#FFCE55;" d="M456.885,250.851H425.98V100.484c0-2.275,1.845-4.12,4.12-4.12h22.666c2.275,0,4.12,1.845,4.12,4.12
	L456.885,250.851L456.885,250.851z"/>
<path style="fill:#8F5040;" d="M498.093,336.323H13.907V230.256c0-2.275,1.845-4.12,4.12-4.12h475.945c2.275,0,4.12,1.845,4.12,4.12
	L498.093,336.323L498.093,336.323z"/>
<path style="fill:#75360D;" d="M498.093,336.323h-30.905V226.136h26.785c2.275,0,4.12,1.845,4.12,4.12V336.323z"/>
<path style="fill:#FFDEA9;" d="M381.605,309.829h-251.21c-2.275,0-4.12-1.845-4.12-4.12v-37.361c0-2.275,1.845-4.12,4.12-4.12
	h251.21c2.275,0,4.12,1.845,4.12,4.12v37.361C385.725,307.985,383.88,309.829,381.605,309.829z"/>
<rect x="40.692" y="336.32" style="fill:#735458;" width="430.62" height="161.68"/>
<g>
	<path style="fill:#8F5040;" d="M40.692,498H13.907c-2.275,0-4.12-1.845-4.12-4.12V336.323h30.905V498z"/>
	<path style="fill:#8F5040;" d="M498.093,498h-26.785V336.323h30.905V493.88C502.213,496.156,500.368,498,498.093,498z"/>
</g>
<path style="fill:#FFBF7B;" d="M431.359,334.951H80.641c-2.275,0-4.12-1.845-4.12-4.12v-35.698c0-2.275,1.845-4.12,4.12-4.12
	h350.718c2.275,0,4.12,1.845,4.12,4.12v35.698C435.479,333.106,433.634,334.951,431.359,334.951z"/>
<path style="fill:#A66856;" d="M485.214,291.008c-2.275,0-4.119,1.844-4.119,4.119v22.655H30.905v-22.655
	c0-2.275-1.844-4.119-4.119-4.119H4.121c-2.276,0-4.121,1.845-4.121,4.121v53.547c0,2.275,1.844,4.119,4.119,4.119H508
	c2.209,0,4-1.791,4-4v-53.787c0-2.209-1.791-4-4-4H485.214z"/>
<path style="fill:#8F5040;" d="M507.88,352.8h-26.785v-57.667c0-2.275,1.845-4.12,4.12-4.12h22.666c2.275,0,4.12,1.845,4.12,4.12
	v53.547C512,350.955,510.155,352.8,507.88,352.8z"/>
<rect x="129.32" y="406.35" style="fill:#A66856;" width="253.35" height="91.65"/>
<rect x="351.77" y="406.35" style="fill:#8F5040;" width="30.905" height="91.65"/>
<path style="fill:#F3B573;" d="M400.226,421.796H111.774c-2.275,0-4.12-1.845-4.12-4.12v-22.654c0-2.275,1.845-4.12,4.12-4.12
	h288.452c2.275,0,4.12,1.845,4.12,4.12v22.654C404.346,419.951,402.502,421.796,400.226,421.796z"/>
<path style="fill:#F5A257;" d="M400.226,421.796h-26.785v-30.894h26.785c2.275,0,4.12,1.845,4.12,4.12v22.654
	C404.346,419.951,402.502,421.796,400.226,421.796z"/>
<g>
</g>
<g>
</g>
<g>
</g>
<g>
</g>
<g>
</g>
<g>
</g>
<g>
</g>
<g>
</g>
<g>
</g>
<g>
</g>
<g>
</g>
<g>
</g>
<g>
</g>
<g>
</g>
<g>
</g>
</svg>
