<?xml version="1.0" encoding="iso-8859-1"?>
<!-- Generator: Adobe Illustrator 19.0.0, SVG Export Plug-In . SVG Version: 6.00 Build 0)  -->
<svg version="1.1" id="Capa_1" xmlns="http://www.w3.org/2000/svg" xmlns:xlink="http://www.w3.org/1999/xlink" x="0px" y="0px"
	 viewBox="0 0 512.001 512.001" style="enable-background:new 0 0 512.001 512.001;" xml:space="preserve">
<path style="fill:#FFCE55;" d="M509.62,19.09c-16.2-3.46-43.5-6.45-66.89-5.95c-0.02,0.01-0.05,0.01-0.07,0.01
	c-8.93,0.19-17.28,0.89-24.24,2.28C312.17,224.99,236.211,355.01,198.571,397.02c-23.72,28.04-78.4,11.45-75.32-26.31
	c3.94-21.26,46.31-147.46,97.34-186.57c2.69-2.06,1.97-6.31-1.29-7.25c-59.75-17.28-183.479-2.38-216.199,6.06
	c-3.25,0.84-4.18,4.95-1.65,7.15c30.15,26.26,28.98,87.71,13.76,148.01c-22.93,90.81,25.34,164.21,108.24,170.53
	c85.09,6.49,138.06-76.63,195.39-189.27c28.92-58.83,127.25-261.34,130.769-267.65c0.01-0.01,0.09-0.03,0.22-0.05
	c3.48-0.63,47.17-6.39,59.62-8.37c1.47-0.23,2.55-1.5,2.55-2.98V22.04C512,20.62,511.01,19.39,509.62,19.09z"/>
<g>
	<path style="fill:#FFBC38;" d="M512,22.04v18.28c0,1.48-1.08,2.75-2.55,2.98c-12.45,1.98-56.14,7.74-59.62,8.37
		c2.81-0.91,2.73-36.26-7.17-38.52c0.02,0,0.05,0,0.07-0.01c23.39-0.5,50.69,2.49,66.89,5.95C511.01,19.39,512,20.62,512,22.04z"/>
	<path style="fill:#FFBC38;" d="M185.549,176.89c3.259,0.943,3.983,5.187,1.291,7.25c-51.036,39.113-93.398,165.308-97.347,186.574
		c-2.52,30.898,33.64,47.61,59.86,37.301c-15.533-5.688-27.597-19.01-26.106-37.301c3.948-21.266,46.311-147.461,97.347-186.574
		c2.691-2.062,1.968-6.307-1.291-7.249c-24.152-6.985-58.758-8.71-93.583-7.731C148.316,169.875,169.3,172.191,185.549,176.89z"/>
	<path style="fill:#FFBC38;" d="M424.903,63.926C405.499,98.434,311.397,265.845,285.09,319.367
		c-51.344,100.865-99.19,178.051-169.723,188.43c2.659,0.353,5.354,0.639,8.089,0.848c85.082,6.487,138.051-76.639,195.389-189.278
		C347.759,260.54,446.095,58.034,449.61,51.724c-5.458,0.871-10.049,2.051-13.554,3.142
		C431.311,56.344,427.336,59.599,424.903,63.926z"/>
</g>
<path style="fill:#FFA440;" d="M220.594,184.142c-7.633,5.852-15.071,13.637-22.21,22.749c-10.59-1.255-21.16-2.15-31.575-2.746
	c-61.501-3.466-118.243,3.682-149.457,8.876c-3.812-9.163-9.055-16.959-15.906-22.924c-2.524-2.201-1.597-6.304,1.648-7.148
	c27.485-7.086,119.15-18.728,183.206-12.043c0.01,0,0.01,0,0.02,0.01c12.208,1.275,23.416,3.209,32.976,5.975
	C222.572,177.837,223.293,182.075,220.594,184.142z"/>
<path style="fill:#D4872C;" d="M220.594,184.142c-7.633,5.852-15.071,13.637-22.21,22.749c-10.59-1.255-21.16-2.15-31.575-2.746
	c6.47-7.929,13.176-14.748,20.026-20.003c2.689-2.067,2.72-12.259-0.515-13.226c12.208,1.275,23.416,3.209,32.976,5.975
	C222.572,177.837,223.293,182.075,220.594,184.142z"/>
<path style="fill:#FFDEA9;" d="M169.468,463.771c-38.917,0.001-57.925-20.784-58.787-21.752c-0.299-0.335-0.566-0.696-0.801-1.079
	l-41.213-67.457c-1.088-1.781-1.385-3.935-0.818-5.944l20.606-73.13c1.123-3.987,5.265-6.309,9.253-5.185
	c3.987,1.123,6.309,5.266,5.185,9.253l-19.719,69.979l39.091,63.982c2.885,2.89,21.207,19.503,57.458,15.798
	c32.016-3.274,82.233-42.978,82.737-43.378c3.24-2.579,7.959-2.043,10.539,1.199c2.579,3.241,2.042,7.959-1.199,10.539
	c-2.196,1.748-54.209,42.846-90.551,46.563C177.138,463.578,173.209,463.771,169.468,463.771z"/>
<path style="fill:#FFA440;" d="M431.995,102.882l-14.911,36.596c-0.899,2.206-3.514,3.142-5.608,2.008l-4.626-2.504l-12.774-6.901
	l-5.645-3.055l-29.25-15.814c-2.019-1.091-2.707-3.654-1.507-5.61l18.987-30.96c1.065-1.737,3.265-2.395,5.109-1.53l29.17,13.691
	l2.802,1.316l16.25,7.632C431.917,98.657,432.798,100.911,431.995,102.882z"/>
<path style="fill:#D4872C;" d="M431.995,102.882l-14.911,36.596c-0.899,2.206-3.514,3.142-5.608,2.008l-4.626-2.504l-12.774-6.901
	l19.666-41.961l16.25,7.632C431.917,98.657,432.798,100.911,431.995,102.882z"/>
<g>
	<path style="fill:#FFA440;" d="M441.675,7.721c2.174,11.743,7.406,42.051,9.29,52.994c0.38,2.206,2.496,3.67,4.695,3.249
		l21.735-4.168c2.108-0.404,3.521-2.4,3.202-4.522l-7.336-48.868C472.967,4.448,471.289,3,469.31,3c-5.71,0-17.161,0-23.704,0
		C443.105,3,441.219,5.262,441.675,7.721z"/>
	<circle style="fill:#FFA440;" cx="95.67" cy="296.44" r="20.495"/>
	<circle style="fill:#FFA440;" cx="75.07" cy="369.57" r="20.495"/>
	<circle style="fill:#FFA440;" cx="116.28" cy="437.03" r="20.495"/>
	<circle style="fill:#FFA440;" cx="267.13" cy="410.73" r="20.495"/>
	<circle style="fill:#FFA440;" cx="298.85" cy="358.17" r="20.495"/>
	<circle style="fill:#FFA440;" cx="334.92" cy="299.86" r="20.495"/>
	<circle style="fill:#FFA440;" cx="253.12" cy="317.02" r="20.495"/>
	<circle style="fill:#FFA440;" cx="292.44" cy="255.29" r="20.495"/>
	<circle style="fill:#FFA440;" cx="330.58" cy="189.58" r="20.495"/>
</g>
<g>
</g>
<g>
</g>
<g>
</g>
<g>
</g>
<g>
</g>
<g>
</g>
<g>
</g>
<g>
</g>
<g>
</g>
<g>
</g>
<g>
</g>
<g>
</g>
<g>
</g>
<g>
</g>
<g>
</g>
</svg>
