<?xml version="1.0" encoding="iso-8859-1"?>
<!-- Generator: Adobe Illustrator 19.0.0, SVG Export Plug-In . SVG Version: 6.00 Build 0)  -->
<svg version="1.1" id="Capa_1" xmlns="http://www.w3.org/2000/svg" xmlns:xlink="http://www.w3.org/1999/xlink" x="0px" y="0px"
	 viewBox="0 0 512 512" style="enable-background:new 0 0 512 512;" xml:space="preserve">
<g>
	<path style="fill:#FFCE55;" d="M179.767,136.5h-30.905c-4.142,0-7.5,3.354-7.5,7.491s3.358,7.491,7.5,7.491h7.953v27.781
		c0,4.137,3.358,7.491,7.5,7.491s7.5-3.354,7.5-7.491v-27.781h7.953c4.142,0,7.5-3.354,7.5-7.491
		C187.267,139.854,183.909,136.5,179.767,136.5z"/>
	<path style="fill:#FFCE55;" d="M233.336,136.5h-30.905c-4.142,0-7.5,3.354-7.5,7.491s3.358,7.491,7.5,7.491h7.953v27.781
		c0,4.137,3.358,7.491,7.5,7.491s7.5-3.354,7.5-7.491v-27.781h7.953c4.142,0,7.5-3.354,7.5-7.491
		C240.836,139.854,237.478,136.5,233.336,136.5z"/>
	<path style="fill:#FFCE55;" d="M286.905,136.5H256c-4.142,0-7.5,3.354-7.5,7.491s3.358,7.491,7.5,7.491h7.953v27.781
		c0,4.137,3.358,7.491,7.5,7.491s7.5-3.354,7.5-7.491v-27.781h7.953c4.142,0,7.5-3.354,7.5-7.491
		C294.405,139.854,291.047,136.5,286.905,136.5z"/>
	<path style="fill:#FFCE55;" d="M512,201.93c0,27.04-0.288,56.097-1.298,74.319c-0.103,1.729-2.689,3.478-3.492,1.934
		c-5.419-10.372-14.515-18.819-26.115-25.703c-40.383-23.974-111.033-28.923-161.738-29.232V192.38
		c0,0,107.922-1.461,161.738-30.034c12.62-6.698,22.272-14.878,26.857-24.89c0.773-1.677,3.606,0.113,3.626,1.955
		C511.712,149.228,512,174.54,512,201.93z"/>
</g>
<path style="fill:#FFBC38;" d="M512,201.93c0,27.04-0.288,56.097-1.298,74.319c-0.103,1.729-2.689,3.478-3.492,1.934
	c-5.419-10.372-14.515-18.819-26.115-25.703v-90.134c12.62-6.698,22.272-14.878,26.857-24.89c0.773-1.677,3.606,0.113,3.626,1.955
	C511.712,149.228,512,174.54,512,201.93z"/>
<g>
	<path style="fill:#FFA440;" d="M175.769,375.5h-22.91c-2.208,0-3.998-1.79-3.998-3.998V175.77c0-2.208,1.79-3.998,3.998-3.998
		h22.91c2.208,0,3.998,1.79,3.998,3.998v195.733C179.767,373.71,177.977,375.5,175.769,375.5z"/>
	<path style="fill:#FFA440;" d="M229.338,375.5h-22.91c-2.208,0-3.998-1.79-3.998-3.998V175.77c0-2.208,1.79-3.998,3.998-3.998
		h22.91c2.208,0,3.998,1.79,3.998,3.998v195.733C233.336,373.71,231.546,375.5,229.338,375.5z"/>
	<path style="fill:#FFA440;" d="M282.908,375.5h-22.91c-2.208,0-3.998-1.79-3.998-3.998V175.77c0-2.208,1.79-3.998,3.998-3.998
		h22.91c2.208,0,3.998,1.79,3.998,3.998v195.733C286.905,373.71,285.116,375.5,282.908,375.5z"/>
</g>
<rect x="15.453" y="192.35" style="fill:#FFCE55;" width="303.9" height="30.868"/>
<path style="fill:#FFA440;" d="M26.908,231.866H3.998c-2.208,0-3.998-1.79-3.998-3.998v-41.393c0-2.208,1.79-3.998,3.998-3.998
	h22.91c2.208,0,3.998,1.79,3.998,3.998v41.393C30.905,230.077,29.116,231.866,26.908,231.866z"/>
<path style="fill:#FFCE55;" d="M348.366,192.351H88.76c-13.66,0-24.724,11.061-24.724,24.694v94.661
	c0,13.633,11.064,24.694,24.724,24.694h259.606c13.65,0,24.724-11.061,24.724-24.694v-94.661
	C373.09,203.412,362.016,192.351,348.366,192.351z M342.185,305.533H94.941v-82.314h247.243v82.314H342.185z"/>
<path style="fill:#FFBC38;" d="M348.366,192.351h-30.905c13.65,0,24.724,11.061,24.724,24.694v6.174v82.314v6.174
	c0,13.633-11.074,24.694-24.724,24.694h30.905c13.65,0,24.724-11.061,24.724-24.694v-94.661
	C373.09,203.412,362.016,192.351,348.366,192.351z"/>
<g>
</g>
<g>
</g>
<g>
</g>
<g>
</g>
<g>
</g>
<g>
</g>
<g>
</g>
<g>
</g>
<g>
</g>
<g>
</g>
<g>
</g>
<g>
</g>
<g>
</g>
<g>
</g>
<g>
</g>
</svg>
