<?xml version="1.0" encoding="iso-8859-1"?>
<!-- Generator: Adobe Illustrator 19.0.0, SVG Export Plug-In . SVG Version: 6.00 Build 0)  -->
<svg version="1.1" id="Layer_1" xmlns="http://www.w3.org/2000/svg" xmlns:xlink="http://www.w3.org/1999/xlink" x="0px" y="0px"
	 viewBox="0 0 470.481 470.481" style="enable-background:new 0 0 470.481 470.481;" xml:space="preserve">
<g>
	<g>
		<g>
			<path d="M152.924,284.289c-2.929-2.929-7.678-2.929-10.606,0c-2.929,2.929-2.929,7.677,0,10.606l33.234,33.234
				c1.464,1.465,3.384,2.197,5.303,2.197s3.839-0.732,5.303-2.197c2.929-2.929,2.929-7.677,0-10.606L152.924,284.289z"/>
			<path d="M114.033,323.18c-1.483-1.483-3.519-2.271-5.615-2.19c-2.096,0.087-4.059,1.048-5.414,2.649l-25.345,29.954
				c-2.675,3.162-2.281,7.894,0.881,10.57c3.163,2.676,7.894,2.281,10.57-0.881l20.081-23.731l21.707,21.707l-50.357,42.61
				c-3.162,2.676-3.556,7.408-0.881,10.57c1.484,1.753,3.599,2.656,5.729,2.656c1.711,0,3.432-0.583,4.841-1.775l56.579-47.875
				c1.601-1.355,2.562-3.318,2.649-5.414c0.087-2.096-0.707-4.132-2.19-5.615L114.033,323.18z"/>
			<path d="M454.837,50.033l13.527-14.081c2.83-2.946,2.782-7.614-0.107-10.501L444.985,2.195
				c-2.888-2.886-7.554-2.932-10.498-0.104l-24.893,23.913L396.46,12.87c-2.929-2.929-7.678-2.929-10.606,0
				c-2.929,2.929-2.929,7.678,0,10.606l12.922,12.921L386.614,48.08l-12.682-12.682c-2.928-2.929-7.677-2.929-10.606,0
				c-2.929,2.929-2.929,7.677,0,10.606l12.469,12.469l-102.377,98.345c-17.957-9.805-38.773-14.011-59.264-11.844
				c-22.83,2.414-44.34,12.68-60.566,28.906l-16.142,16.142c-2.517,2.516-2.918,6.455-0.961,9.427
				c3.858,5.86,5.203,12.871,3.787,19.743c-1.416,6.871-5.422,12.78-11.282,16.638l-22.039,14.51
				c-12.097,7.964-28.417,4.602-36.381-7.495c-1.24-1.883-3.261-3.108-5.503-3.337c-2.244-0.229-4.469,0.564-6.064,2.158
				l-23.876,23.876C17.906,282.763,7.03,303.958,2.48,326.202c-0.091,0.284-0.171,0.573-0.229,0.873
				c-0.053,0.275-0.088,0.55-0.11,0.823c-7.156,37.739,3.836,78.272,32.986,107.421c22.675,22.675,52.822,35.162,84.889,35.162
				c32.067,0,62.214-12.487,84.889-35.162l23.875-23.875c1.594-1.594,2.387-3.821,2.158-6.064s-1.454-4.264-3.337-5.504
				c-12.096-7.964-15.458-24.284-7.494-36.381l14.509-22.039c3.858-5.86,9.767-9.866,16.638-11.282
				c6.874-1.416,13.883-0.07,19.743,3.787c2.973,1.958,6.912,1.556,9.427-0.961l16.143-16.142
				c16.226-16.226,26.492-37.736,28.906-60.566c2.167-20.493-2.039-41.307-11.844-59.264L422.368,83.834l12.682,12.682
				c1.464,1.465,3.384,2.197,5.303,2.197s3.839-0.732,5.303-2.197c2.929-2.929,2.929-7.677,0-10.606l-12.895-12.895l11.683-12.162
				l13.135,13.135c1.464,1.464,3.384,2.197,5.303,2.197s3.839-0.732,5.303-2.197c2.929-2.929,2.929-7.678,0-10.606L454.837,50.033z
				 M40.264,418.813c-19.717-22.963-27.886-52.492-24.507-80.896c7.317,2.591,13.978,6.788,19.555,12.365
				c9.916,9.916,15.377,23.1,15.377,37.123C50.689,398.881,47.027,409.792,40.264,418.813z M285.96,306.253l-12.153,12.153
				c-7.952-3.68-16.838-4.723-25.579-2.922c-10.796,2.224-20.079,8.519-26.14,17.725l-14.509,22.039
				c-10.813,16.424-8.336,37.804,4.802,51.384l-18.082,18.082c-19.841,19.842-46.222,30.769-74.282,30.769
				c-25.687,0-49.963-9.163-69.107-25.933c9.571-11.926,14.781-26.632,14.781-42.144c0-18.03-7.021-34.98-19.771-47.729
				c-7.713-7.713-17.042-13.369-27.303-16.615c4.611-17.197,13.649-33.443,27.118-46.911l18.083-18.082
				c13.58,13.138,34.96,15.615,51.383,4.802l22.039-14.509c9.207-6.061,15.501-15.345,17.726-26.14
				c1.8-8.741,0.757-17.627-2.922-25.58l12.152-12.153c26.128-26.127,65.138-32.404,97.801-16.696l-80.679,77.501
				c-1.453,1.396-2.284,3.318-2.304,5.333c-0.021,2.015,0.771,3.954,2.196,5.378l33.234,33.234c1.407,1.407,3.315,2.197,5.303,2.197
				c0.025,0,0.05,0,0.075,0c2.015-0.02,3.938-0.851,5.333-2.304l77.502-80.679C318.364,241.116,312.088,280.126,285.96,306.253z
				 M219.638,273.222l-22.412-22.412l171.139-164.4l15.675,15.67L219.638,273.222z M394.434,91.26l-15.249-15.244L439.58,18
				l12.872,12.864L394.434,91.26z"/>
			<path d="M138.778,157.326c1.464,1.465,3.384,2.197,5.303,2.197c1.919,0,3.839-0.732,5.303-2.197
				c2.929-2.929,2.929-7.677,0-10.606L60.572,57.907L78.25,40.229l95.72,95.72c2.929,2.929,7.678,2.929,10.606,0
				c2.929-2.929,2.929-7.677,0-10.606L83.553,24.32c-7.06-7.059-16.477-10.947-26.517-10.947c-10.04,0-19.457,3.887-26.516,10.947
				l-7.071,7.071c-1.407,1.406-2.197,3.314-2.197,5.303c0,1.989,0.79,3.897,2.197,5.303L138.778,157.326z M41.127,34.926
				c4.226-4.226,9.876-6.554,15.91-6.554c3.414,0,6.695,0.77,9.675,2.183L49.965,47.301L39.359,36.694L41.127,34.926z"/>
			<path d="M428.974,426.31l1.768-1.768c14.621-14.621,14.621-38.412,0-53.033l-85.639-85.638c-2.929-2.929-7.678-2.929-10.606,0
				c-2.929,2.929-2.929,7.677,0,10.606l80.335,80.335l-17.678,17.678l-73.423-73.423c-2.929-2.929-7.678-2.929-10.606,0
				c-2.929,2.929-2.929,7.677,0,10.606l99.939,99.939c0.001,0.001,23.301,23.301,23.301,23.301c1.464,1.465,3.384,2.197,5.303,2.197
				s3.839-0.732,5.303-2.197c2.929-2.929,2.929-7.677,0-10.606L428.974,426.31z M420.136,413.935l-1.768,1.768l-10.607-10.607
				l16.75-16.749C428.489,396.707,427.047,407.024,420.136,413.935z"/>
		</g>
	</g>
</g>
<g>
</g>
<g>
</g>
<g>
</g>
<g>
</g>
<g>
</g>
<g>
</g>
<g>
</g>
<g>
</g>
<g>
</g>
<g>
</g>
<g>
</g>
<g>
</g>
<g>
</g>
<g>
</g>
<g>
</g>
</svg>
